<svg id="レイヤー_2" data-name="レイヤー 2" xmlns="http://www.w3.org/2000/svg" viewBox="0 0 468.536 37.385"><defs><style>.cls-1{fill:#c71528;}.cls-2{fill:#bc1b29;}</style></defs><title>logo</title><polygon class="cls-1" points="0 0.993 21.594 0.993 21.594 5.787 8.213 5.787 8.213 15.817 20.937 15.817 20.937 20.609 8.213 20.609 8.213 36.658 0 36.658 0 0.993"/><path class="cls-1" d="M55.524,36.145a41.67,41.67,0,0,1-8.731,1.125c-12.414,0-21.038-5.773-21.038-17.831C25.755,7.226,33.775.383,46.793.383A27,27,0,0,1,55.47,1.865l-.028,5.2a18.72,18.72,0,0,0-8.818-1.894c-7.905,0-12.494,6.448-12.494,13.756,0,7.255,4.477,13.547,12.663,13.547A24.68,24.68,0,0,0,55.511,31Z"/><polygon class="cls-1" points="61.294 0.993 83.921 0.993 83.921 5.648 69.22 5.648 69.22 15.817 82.659 15.817 82.659 20.469 69.22 20.469 69.22 31.863 84.031 31.863 84.031 36.658 61.294 36.658 61.294 0.993"/><path class="cls-1" d="M136.338.959h7.714c7.665,0,17.253-.924,17.253,8.39,0,4.936-2.808,8.553-7.356,9.169v.1c1.942.156,3.065,2.469,3.78,4.055l5.726,13.952h-7.971L151.49,25.481a5.891,5.891,0,0,0-6-4.054h-1.288v15.2h-7.868Zm7.868,15.221h1.338c3.527,0,9.045.115,9.045-5.608,0-5.359-5.469-4.993-9.045-4.993h-1.338Z"/><path class="cls-1" d="M183.446.344c11.787,0,18.406,7.562,18.406,18.344s-6.513,18.546-18.406,18.546c-12.054,0-18.4-7.615-18.4-18.546S171.5.344,183.446.344m0,31.992c7.7,0,9.923-7.212,9.923-13.648,0-6.284-2.442-13.447-9.923-13.447s-9.907,7.163-9.907,13.447c0,6.436,2.211,13.648,9.907,13.648"/><path class="cls-1" d="M207.214.959h7.9V22.588c0,6.079,1.348,9.766,6.814,9.766s6.666-3.687,6.666-9.766V.959h7.9V23.746c0,9.553-5.416,13.489-14.561,13.489s-14.71-3.936-14.71-13.489Z"/><path class="cls-1" d="M243.565.959h9.041c7.769,0,15.614.826,15.614,9.889,0,8.812-6.824,10.6-14.486,10.6h-2.472V36.625h-7.7Zm7.7,15.61h1.961c3.577,0,8.428-.537,8.428-5.609,0-5.287-4.75-5.272-8.428-5.272h-1.961Z"/><path class="cls-1" d="M128.98,16.185H114.556v4.589h7.582V31.885a29.743,29.743,0,0,1-3.3.205c-8.185,0-12.662-6.291-12.662-13.543,0-7.309,4.589-13.758,12.495-13.758a18.752,18.752,0,0,1,8.818,1.892l.025-5.2A27.063,27.063,0,0,0,118.839,0C105.821,0,97.8,6.842,97.8,19.056c0,12.055,8.624,17.828,21.038,17.828a51.273,51.273,0,0,0,10.14-1.489l-.007-.023h.007v-14.6h0Z"/><path class="cls-2" d="M291.537,36.97l-4.414-8.28h-2.99v8.28h-4.3V15.086h7.491c4.5,0,8.071,1.6,8.071,6.624a6.263,6.263,0,0,1-4.093,6.3l5.023,8.961Zm-7.4-11.74h2.787c2.759,0,4.269-1.183,4.269-3.52,0-2.366-1.51-3.164-4.269-3.164h-2.787Z"/><path class="cls-2" d="M299.37,15.086h13.182v3.637h-8.885V23.78h7.549v3.668h-7.549V33.3h9.2V36.97h-13.5Z"/><path class="cls-2" d="M315.207,26.117c0-7.216,4.558-11.445,9.988-11.445a8.7,8.7,0,0,1,6.3,2.809l-2.265,2.78a5.5,5.5,0,0,0-3.949-1.834c-3.252,0-5.691,2.84-5.691,7.542,0,4.761,2.207,7.63,5.6,7.63a5.935,5.935,0,0,0,4.443-2.159l2.264,2.721a8.631,8.631,0,0,1-6.852,3.224C319.62,37.385,315.207,33.422,315.207,26.117Z"/><path class="cls-2" d="M346.642,36.97l-4.413-8.28h-2.991v8.28h-4.3V15.086h7.491c4.5,0,8.072,1.6,8.072,6.624a6.263,6.263,0,0,1-4.094,6.3l5.023,8.961Zm-7.4-11.74h2.788c2.758,0,4.268-1.183,4.268-3.52,0-2.366-1.51-3.164-4.268-3.164h-2.788Z"/><path class="cls-2" d="M354.1,27.122V15.086h4.3V27.507c0,4.554,1.539,6.092,4.064,6.092,2.556,0,4.181-1.538,4.181-6.092V15.086h4.124V27.122c0,7.275-3.049,10.263-8.305,10.263C357.239,37.385,354.1,34.4,354.1,27.122Z"/><path class="cls-2" d="M375.521,15.086h4.3V36.97h-4.3Z"/><path class="cls-2" d="M388.875,18.723h-6.039V15.086H399.27v3.637h-6.1V36.97h-4.3Z"/><path class="cls-2" d="M407.947,34.19l2.514-3.016a8.613,8.613,0,0,0,5.56,2.425c2.277,0,3.49-.976,3.49-2.514,0-1.626-1.331-2.129-3.283-2.957L413.3,26.886c-2.218-.917-4.436-2.691-4.436-5.885,0-3.579,3.135-6.329,7.571-6.329a9.709,9.709,0,0,1,6.861,2.809l-2.218,2.75a6.983,6.983,0,0,0-4.643-1.8c-1.922,0-3.164.858-3.164,2.307,0,1.568,1.567,2.13,3.43,2.869l2.869,1.213c2.661,1.094,4.406,2.779,4.406,5.944,0,3.578-2.987,6.625-8.044,6.625A11.662,11.662,0,0,1,407.947,34.19Z"/><path class="cls-2" d="M427.5,15.086h4.377V36.97H427.5Z"/><path class="cls-2" d="M441.1,18.723h-6.152V15.086h16.739v3.637h-6.21V36.97H441.1Z"/><path class="cls-2" d="M454.783,15.086H468.21v3.637h-9.05V23.78h7.69v3.668h-7.69V33.3h9.376V36.97H454.783Z"/></svg>