<svg xmlns="http://www.w3.org/2000/svg" width="792.409" height="115.906" viewBox="0 0 792.409 115.906">
  <defs>
    <style>
      .cls-1 {
        fill: #282828;
        fill-rule: evenodd;
      }
    </style>
  </defs>
  <path id="人生は_いま_変えろ_" data-name="人生は、いま、変えろ。" class="cls-1" d="M362.8,446.228a1.739,1.739,0,0,1,1.243-.568,1.333,1.333,0,0,0,1.268-1.371c-0.1-1.437-1.73-1.8-5.634-2.574-0.729-.109-4.239-0.987-4.718-0.953a0.685,0.685,0,0,0-.594.683,11.466,11.466,0,0,0,.431,1.574,21.907,21.907,0,0,1,.66,4.846c0.061,0.878,1.657,23.7-6.23,41.657-4.627,10.669-13.069,18.4-17.48,21.833a1.981,1.981,0,0,0-.97,1.03,0.4,0.4,0,0,0,.507.366c0.718-.051,14.349-5.816,21.9-20.618,6.991-13.562,7.766-32.3,7.827-34.872,0.118-2.9.1-3.215,0.575-3.248,0.319-.023.325,0.057,0.466,0.93a86.406,86.406,0,0,0,9.821,30.349c8.924,16.378,19.5,21.974,19.82,21.951,0.239-.016.462-0.272,1.9-1.5a15.946,15.946,0,0,1,5.339-2.779c2.515-.737,2.755-0.754,2.727-1.153a1.013,1.013,0,0,0-.837-0.5c-12.514-2.333-22.553-16.307-24.061-18.367C364.928,466.29,362.631,447.2,362.631,447.2A1.542,1.542,0,0,1,362.8,446.228Zm73.478,5.448c-1.037.073-2,.14-2.067-0.9a30.666,30.666,0,0,1,2.129-6.243c0.286-.5,2.717-2.436,2.672-3.074-0.094-1.357-7.973-3.934-8.133-3.923s-0.308.182-.362,1.71c-0.128,1.613-.924,12.014-8.57,28.828-0.629,1.328-1.738,3.811-1.727,3.971a0.4,0.4,0,0,0,.432.451c1.277-.09,6.246-7.013,10.122-14.663,1.761-3.491,1.9-3.742,4.378-3.915l13.168-.92a2,2,0,0,1,2.46,1.913l1.094,15.642c0.089,1.277.173,2.474-2.222,2.641l-8.858.62c-3.751.262-7.029,0.411-10.95,0.525-0.565-.041-2.976-0.113-3.534-0.074-0.24.017-.314,0.1-0.3,0.262a1.381,1.381,0,0,0,.353.457l1.724,1.724a0.969,0.969,0,0,0,.758.508,14.248,14.248,0,0,0,1.659-.357c0.718-.05,3.021-0.371,10.044-0.862l9.338-.653c1.835-.129,2.381.8,2.448,1.753l1.345,19.234c0.2,2.873-1,2.956-2.433,3.057L436,500.456c-3.751.262-7.034,0.331-10.956,0.445-0.558.039-3.049-.027-3.528,0.006-0.239.017-.319,0.022-0.308,0.182a0.753,0.753,0,0,0,.358.536l1.725,1.724a0.859,0.859,0,0,0,.672.435c0.319-.023,1.425-0.26,1.744-0.283,0.713-.13,3.016-0.451,10.039-0.942l52.992-3.706c2.394-.167,4.23-0.3,4.157-1.333-0.05-.718-6.808-5.619-7.686-5.558-0.718.051-.93,0.466-3.1,3.906-0.943,1.429-1.342,1.457-5.013,1.714L462.5,498.6c-1.277.089-2.246,0-2.649-1.178-0.107-.394-1.387-17.547-1.554-19.941-0.134-1.915.049-2.73,2.364-2.892l19.313-1.35c2.474-.173,4.31-0.3,4.237-1.339-0.05-.718-6.809-5.619-7.686-5.558-0.719.051-.936,0.387-3.181,3.832-0.863,1.423-1.262,1.451-5.013,1.714l-7.9.552c-2.474.173-2.7-.774-2.873-3.248-0.162-2.314-1.033-14.764-.918-15.413,0.3-1.385,1.422-1.463,2.3-1.525l21.867-1.529c2.394-.167,4.229-0.3,4.157-1.333-0.05-.718-6.809-5.619-7.687-5.557-0.718.05-.935,0.386-3.1,3.825-0.943,1.43-1.342,1.457-5.013,1.714l-10.3.72c-2.474.173-2.621-.779-2.766-2.854-0.117-1.676-.4-7.992.076-9.228,0.212-.416,1.782-2.049,1.748-2.528-0.139-2-8.256-2.23-8.814-2.191s-0.867.221-.839,0.62,0.709,2.116.817,2.509a71.1,71.1,0,0,1,1.132,9.3c0.279,3.991.346,4.948-2.128,5.121Zm119.776,28.6c1.386-.819,5.77,2.243,8.28,4.874,2.083,2.26,2.345,2.563,3.3,2.5a3.146,3.146,0,0,0,2.65-3.393c-0.329-4.709-8.971-7.874-13-9.276-2.057-.739-2.335-1.281-2.861-4.211-0.39-2.138-1.579-11.117-1.7-12.873-0.24-3.432-.245-3.512,2.618-5s8.049-4.172,7.787-7.923c-0.235-3.351-2.874-3.247-6.4-3.161-0.478.033-4.64,0.164-4.807-2.23a3.461,3.461,0,0,1,.362-1.71c0.708-1.332.777-1.5,0.738-2.056-0.212-3.033-5.637-3.776-7.233-3.665-1.676.117-2.652,1.068-2.619,1.547,0.039,0.558,2.317,2.163,2.664,2.54,1.644,1.73,1.8,3.964,2.152,8.992,0.369,5.267.369,5.267-4.021,5.574a23.932,23.932,0,0,1-9.05-.971,13.83,13.83,0,0,0-2.233-.966,0.47,0.47,0,0,0-.36.586c0.056,0.8,3.29,6.908,12.308,6.277a26.446,26.446,0,0,1,3.683-.1,2.658,2.658,0,0,1,.772,1.871c0.236,2.229,1.067,10.671,1.1,11.15,0.346,4.948.385,5.507-1.61,5.647-16.344,1.383-15.753,9.843-15.674,10.96,0.329,4.708,5.186,7.657,10.534,7.283a13.193,13.193,0,0,0,11.361-8.413C555,483.553,555.516,480.55,556.058,480.272Zm-3.7-36.873a1.713,1.713,0,0,1,.936-0.386c1.117-.078,3.823.775,3.924,2.212,0.128,1.835-2.838,3-3.955,3.083-0.559.039-1.2,0.084-1.409-2.949A2.426,2.426,0,0,1,552.356,443.4Zm-8.032,35.368c5.107-.358,6.269.2,6.364,1.559,0.19,2.714-4.41,6.885-9.119,7.214-2.793.2-5.362-.988-5.513-3.143C535.894,482.083,539.775,479.085,544.324,478.767Zm-22.539,4.543c-0.162-2.314,1.269-13.963,1.091-16.517-0.011-.159-0.05-0.718-0.37-0.7-0.558.039-2.467,7.15-2.714,8.21-1.129,4.49-1.187,4.814-1.905,4.865-1.915.134-2.273-4.974-2.306-5.453-0.407-5.826.524-10.863,1.751-16.242,0.5-2.04,3.324-12.1,3.28-12.74-0.1-1.437-4.649-9.138-9.118-8.826-0.479.034-1.426,0.26-1.392,0.739a16.079,16.079,0,0,0,1.711,2.687,11.324,11.324,0,0,1,2.3,6.5c0.173,2.474.042,2.884-1.507,12.857a61.127,61.127,0,0,0-.981,15.787c0.865,12.37,5.414,20.072,9.4,19.793,1.835-.129,2.528-1.7,2.4-3.457C523.355,489.7,521.869,484.507,521.785,483.31Zm88.182,6.184c-0.519-7.422-14.376-10.623-17.169-10.428a0.725,0.725,0,0,0-.839.62,3.384,3.384,0,0,0,1.184.88,22.606,22.606,0,0,1,8.977,7.953c2.969,4.6,3.327,5.141,5,5.023C608.639,493.436,610.1,491.409,609.967,489.494Zm37.266-56.1a0.439,0.439,0,0,0-.457.352,10.812,10.812,0,0,0,.829,2.669,22.312,22.312,0,0,1,.882,4.59c0.145,2.075-.286,11.969-0.13,14.2,1.066,15.243,11.708,22.92,16.816,22.562,1.356-.1,2.971-1.09,2.859-2.686a20.187,20.187,0,0,0-.822-2.589,10.742,10.742,0,0,1-.7-3.159c-0.118-1.675-.008-2.4.613-6.137a9.642,9.642,0,0,0,.128-1.613,0.573,0.573,0,0,0-.444-0.611c-0.638.045-1.861,2.055-2.284,2.887-2.115,4.157-2.407,4.579-3.763,4.674-2.474.173-7.032-5.363-7.6-13.424a28.248,28.248,0,0,1,1.195-10.429c0.636-2.37.779-2.62,0.734-3.259C654.942,439.273,650.9,433.14,647.233,433.4Zm38.581,4.68a0.616,0.616,0,0,0-.69.449c0.033,0.479,3.4,2.73,4.082,3.324,4.525,3.934,4.76,7.285,5.223,13.909,0.072,1.038.374,5.348,4.284,5.074,3.831-.268,3.728-4.03,3.622-5.546a19.912,19.912,0,0,0-8.168-14.747A15.568,15.568,0,0,0,685.814,438.077Zm65.725-17.588a55,55,0,0,1,.012,7.056c-0.1.81-.874,1.265-2.549,1.382a14.122,14.122,0,0,1-7.892-1.614c-0.251-.143-2.244-1.126-2.324-1.12a0.533,0.533,0,0,0-.28.581c0.217,3.112,5.53,6.831,11.224,6.833,1.282-.009,1.681-0.037,1.709.362,0.006,0.08.1,10.579,0.035,10.824-0.452,1.556-5.8,1.93-7.715,2.064A31.129,31.129,0,0,1,734,446.1a19.83,19.83,0,0,0-3.111-.905c-0.239.017-.228,0.176-0.217,0.336,0.045,0.638,1.376,2.47,2.571,3.509,3.826,3.1,9.407,2.631,11.243,2.5,1.037-.072,5.8-0.806,6.915-0.884,0.8-.056.831,0.423,0.882,1.141,0.23,2.149.684,7.491,0.8,9.087,0.189,2.713.206,2.953-.672,3.014-0.559.039-3.528,0.006-4.246,0.056-9.5.664-14.109,4.676-13.774,9.464,0.229,3.273,3.316,8.43,10.818,7.9,6.544-.457,11.59-5.141,13-9.009,0.338-.906.47-1.316,0.949-1.349,0.878-.062,4.152,2.035,5.887,3.919,3.114,3.23,3.461,3.607,4.578,3.529a3.1,3.1,0,0,0,2.479-3.542c-0.262-3.751-5.666-7.623-12.069-9.742-1.721-.521-1.743-0.84-2.247-3.452-0.135-.792-1.655-9.908-1.761-11.425-0.056-.8.178-0.894,2.591-1.945,3.587-1.454,12.189-5.745,11.994-8.538-0.123-1.756-2.209-1.77-5.5-1.781-0.4.028-2.1-.254-2.5-0.226-0.16.011-.4,0.028-0.382,0.267s0.4,1.175.419,1.415c0.179,2.553-5.455,4.551-6.333,4.613-1.038.072-1.071-.406-1.2-2.242-0.228-3.272-.205-7.524-0.142-7.769,0-1.2.15-1.294,0.778-1.5,2.184-.875,7.5-2.85,7.293-5.8-0.09-1.277-1.623-1.41-2.421-1.355a9.568,9.568,0,0,0-2.828.84,9.265,9.265,0,0,1-2.185.874,0.377,0.377,0,0,1-.352-0.456,18.7,18.7,0,0,1,.834-5.271c0.2-.576,1.755-3.572,1.7-4.37-0.118-1.676-4.567-3.369-6.722-3.219-0.478.034-2,.14-1.956,0.7,0.011,0.16.546,0.925,0.643,1.158A15.206,15.206,0,0,1,751.539,420.489ZM753,468.826c0.369,0.7-.215,2.662-1.563,4.039a13.2,13.2,0,0,1-7.694,3.506c-2.235.156-6.451-.512-6.664-3.544-0.318-4.549,8.062-5.135,8.222-5.146C746.732,467.58,752.341,467.509,753,468.826Zm62.375,6.3c-0.519-7.422-14.376-10.623-17.17-10.428a0.726,0.726,0,0,0-.839.62,3.366,3.366,0,0,0,1.185.879,22.621,22.621,0,0,1,8.977,7.954c2.968,4.6,3.326,5.14,5,5.023C814.042,479.073,815.5,477.046,815.37,475.131Zm83.9-28.4a1.066,1.066,0,0,1,1.423.863c0.078,1.117-5.275,9.431-6.951,9.548-2.075.145-9.372-6.723-9.478-8.239-0.039-.559.082-1.129,3.114-1.341Zm-4.674-34.72c-2,.14-2.433-0.391-2.606-2.865-0.089-1.277-.184-2.633.421-3.157,0.982-.87,1.056-0.956,1.022-1.435-0.056-.8-1.1-0.885-1.509-0.937-1.208-.076-6.941-0.637-7.34-0.609-0.24.017-.639,0.044-0.617,0.364a12.869,12.869,0,0,0,.671,1.557,10.486,10.486,0,0,1,.821,3.712c0.234,3.351-.041,4.012-2.515,4.185l-14.684,1.027c-2.075.145-6.47,0.372-10.956,0.445-0.559.039-2.969-.033-3.528,0.007-0.24.016-.314,0.1-0.308,0.181a1.373,1.373,0,0,0,.358.537l1.725,1.724a1.063,1.063,0,0,0,.751.428c0.24-.016,1.346-0.254,1.665-0.276,1.745-.283,4.133-0.53,10.039-0.943l8.22-.575c1.357-.1,2.411.072,2.545,1.988a38.563,38.563,0,0,1-2.6,14.456c-2.655,6.762-7.977,9.781-14.686,13.618-0.77.455-1.928,1.1-1.05,1.036a31.429,31.429,0,0,0,12.866-5.23c5.729-4.09,10.35-10.267,11.491-22.617,0.319-3.471.291-3.87,2.605-4.032l5.666-.4c0.958-.067,2.395-0.168,2.625,1.981,0.247,2.389.621,7.736,0.8,10.29,0.379,5.427.418,5.985-1.868,6.546-0.713.13-4.549,0.318-5.347,0.374-0.16.011-.559,0.039-0.548,0.2a8.674,8.674,0,0,0,1.823.835,6.643,6.643,0,0,1,3.438,3.288c0.869,2.105.977,2.5,2.253,2.409a7.655,7.655,0,0,0,3.953-1.961c2.352-1.928,2.509-4.265,2.347-6.58-0.173-2.474-1.262-13.465-1.4-15.46-0.1-1.436.147-2.5,2.381-2.652l18.116-1.267c2.554-.179,4.23-0.3,4.158-1.333-0.034-.479-5.766-5.612-7.921-5.461-0.8.055-1.015,0.391-2.781,3.8-0.783,1.418-1.741,1.485-5.013,1.714ZM888.74,445.3c-0.559.039-1.277,0.089-1.322-.55-0.05-.718,1.177-1.525,1.485-1.707,0.685-.529,1.221-0.888,1.171-1.606-0.056-.8-2.448-1.753-4.175-2.355-2.637-1.018-2.968-1.155-3.207-1.139-0.4.028-1.356,3.544-1.631,4.2-3.347,8.334-10.076,14.178-17.343,18.055-0.542.278-3.656,1.619-3.639,1.858a0.339,0.339,0,0,0,.421.291,40.759,40.759,0,0,0,17.727-7.976c0.759-.614,4.133-3.978,4.612-4.011a1.282,1.282,0,0,1,1.178.8,44.009,44.009,0,0,0,6.043,7.277,2.489,2.489,0,0,1,.984,1.455c0.072,1.037-4.791,6.029-17.35,11.077a124.631,124.631,0,0,1-13.322,4.46,1.143,1.143,0,0,0-.844.541c0.022,0.319.74,0.269,0.98,0.252,5.028-.352,22.32-3.085,32.8-11.436,1.295-.973,1.752-1.326,2.31-1.365,0.479-.033.724,0.03,2.552,0.944,9.329,4.962,22.591,6.521,25.863,6.292,0.8-.056,1.227-0.808,1.536-2.112a16.9,16.9,0,0,1,3.388-5.45,7.474,7.474,0,0,0,1.017-1.515c-0.57-.12-7.633.935-8.91,1.024-12.53.876-21.372-1.713-21.467-3.07-0.034-.479.566-1.082,1.753-2.448a73.139,73.139,0,0,0,7.208-9.326c0.794-1.258.953-1.27,2.681-1.791,0.628-.2,1.637-0.676,1.576-1.554-0.117-1.676-6.5-4.6-6.9-4.57-0.878.061-3.283,3.517-3.808,4.035-0.451.433-.844,0.54-2.6,0.663ZM865.5,419.176c-0.229.177-.638,3.493-0.833,4.149a52.287,52.287,0,0,1-9.361,16.373c-0.154.091-.365,0.507-0.046,0.484a15.629,15.629,0,0,0,2.481-1.216,32.489,32.489,0,0,0,9.709-9.1c0.44-.593,2.548-3.707,3.142-4.39,0.291-.422,2.522-1.781,2.483-2.339s-0.535-.765-5.274-3.16C866.555,419.343,865.809,418.994,865.5,419.176Zm40.783-.526a0.7,0.7,0,0,0,.592.44c3.486,1.681,8.289,7.28,10.125,10.6,2.484,4.558,2.757,5.02,4.113,4.925,1.517-.106,3.064-2.059,2.869-4.852-0.4-5.746-11.411-11.793-17.237-11.386A0.487,0.487,0,0,0,906.284,418.65Zm58.058-17.934a0.366,0.366,0,0,0-.291.422c0.028,0.4.334,1.34,2.925,2.843,1.76,1.08,3.093,1.788,3.126,2.267,0.067,0.958-3.273,4.8-3.234,5.359a0.367,0.367,0,0,0,.347.377c0.479-.034,2.624-1.467,3.172-1.666,1.865-.852,2.024-0.863,7.611-1.254a2.238,2.238,0,0,0,2.078-2.391c-0.15-2.154-2.673-3.822-5.357-4.357-1.054-.166-6.713-0.813-7.932-1.049C966.382,401.215,964.582,400.7,964.342,400.716Zm1.563,22.346a12.928,12.928,0,0,1-3.956-.365c-0.159.011-2.034-.419-2.273-0.4a0.566,0.566,0,0,0-.514.677c0.056,0.8,2.692,6.388,7.321,6.065,2.314-.162,4.517-1.92,6.247-3.565,1.05-1.036,3.167-2.868,4.285-2.946a1.224,1.224,0,0,1,1.451,1.262c0.162,2.314-5.589,9.533-11.922,17.595-12.089,15.2-12.028,16.078-11.877,18.233a2.945,2.945,0,0,0,3.074,2.672c2.713-.19,3.823-2.673,5.773-6.9,3.82-8.448,8.987-10.253,10.583-10.364,2.394-.168,2.444.551,3.056,7,0.465,5.5,2.173,10.434,11.67,9.77,8.619-.6,15.2-1.784,14.887-6.094-0.12-1.835-2.28-2.887-4.437-2.737-2,.14-11.661,2.981-13.9,3.137-4.469.313-4.885-3.347-4.941-4.145s0.172-4.423.116-5.221a6.036,6.036,0,0,0-6.233-5.419c-0.239.017-1.585,0.271-1.745,0.283a0.684,0.684,0,0,1-.831-0.423c-0.045-.639,4.659-5.619,5.476-6.559,5.823-6.181,8.66-9.186,8.459-12.059-0.167-2.394-2.781-4.217-5.973-3.993a10.174,10.174,0,0,0-3.313.793C969.4,422.577,968.618,422.873,965.905,423.062Zm70.325-19.514c-0.23.017-.79,0.136-0.76,0.535,0.01,0.08,2.97,3.481,3.41,4.012a5.272,5.272,0,0,0,3.81,1.818c2.32-.161,11.78-7.078,14.33-7.257a0.8,0.8,0,0,1,.94.817c0.22,3.112-19.82,28.413-25.28,35.21-2.81,3.484-3.92,4.845-3.71,7.8,0.07,0.957.4,3.42,3.19,3.225,2.32-.162,3.09-1.74,5.69-7.054,3.22-6.721,13.8-17.085,26.25-17.955,10.37-.726,11.7,7.923,11.86,10.237,0.98,14.046-21.61,22.363-22.39,22.658-2.74.994-3.05,1.1-3.02,1.575,0.02,0.319.51,0.445,1.23,0.4,4.55-.318,32.28-7.39,31.12-24.07-0.54-7.661-8.05-15.316-18.35-14.6a35.627,35.627,0,0,0-12.03,3.328c-0.62.284-3.47,2.006-4.19,2.057-0.48.033-.58-0.2-0.59-0.36-0.04-.559,8.59-12.47,13.4-17.137,3.39-3.2,5.11-4.928,4.91-7.8-0.14-2-2.39-4.4-6.3-4.13-2.64.184-3.49,0.645-6.5,2.3-1.47.824-9.65,4.2-12.76,4.421C1039.85,403.617,1036.63,403.521,1036.23,403.548Zm77.48,36.767c-3.59.251-8.67,3.333-8.25,9.4A8.884,8.884,0,1,0,1113.71,440.315Zm0.07,2.24a6.718,6.718,0,0,1,7.26,6.229,6.614,6.614,0,0,1-6.17,7.008,6.7,6.7,0,0,1-7.17-6.235A6.466,6.466,0,0,1,1113.78,442.555Z" transform="translate(-330.781 -396.844)"/>
</svg>
