<svg xmlns="http://www.w3.org/2000/svg" width="62.469" height="558.407" viewBox="0 0 62.469 558.407">
  <defs>
    <style>
      .cls-1 {
        fill: #282828;
        fill-rule: evenodd;
      }
    </style>
  </defs>
  <path id="人生は_いま_変えろ_" data-name="人生は、いま、変えろ。" class="cls-1" d="M389.644,175.686a1.211,1.211,0,0,1,.907-0.3,0.934,0.934,0,0,0,.983-0.863c0.035-1.007-1.073-1.382-3.734-2.2-0.5-.13-2.879-1-3.214-1.009a0.479,0.479,0,0,0-.464.432,7.924,7.924,0,0,0,.185,1.127,15.39,15.39,0,0,1,.1,3.422c-0.022.616-.581,16.622-7.385,28.544-4,7.088-10.444,11.85-13.766,13.92a1.385,1.385,0,0,0-.751.646,0.28,0.28,0,0,0,.326.291c0.5,0.018,10.415-3,16.751-12.751,5.859-8.929,7.77-21.918,8-23.7,0.294-2.007.3-2.231,0.638-2.219,0.224,0.008.222,0.064,0.256,0.681a60.471,60.471,0,0,0,4.617,21.847c5.014,12.054,11.967,16.723,12.191,16.731a4.832,4.832,0,0,0,1.432-.9,11.135,11.135,0,0,1,3.921-1.544c1.8-.33,1.972-0.324,1.982-0.6a0.71,0.71,0,0,0-.546-0.411c-8.541-2.54-14.507-13-15.406-14.546a60.914,60.914,0,0,1-7.22-25.916A1.077,1.077,0,0,1,389.644,175.686Zm-15.47,70.735c-0.728-.025-1.4-0.048-1.374-0.776a21.548,21.548,0,0,1,1.939-4.191c0.236-.328,2.07-1.5,2.086-1.944,0.033-.952-5.264-3.322-5.376-3.326s-0.227.1-.376,1.164c-0.207,1.113-1.523,8.3-8.076,19.442-0.535.877-1.489,2.525-1.493,2.637a0.281,0.281,0,0,0,.268.346c0.9,0.031,4.862-4.425,8.12-9.467,1.481-2.3,1.6-2.465,3.334-2.405l9.234,0.323a1.4,1.4,0,0,1,1.572,1.511l-0.383,10.97c-0.031.9-.061,1.735-1.74,1.676l-6.212-.217c-2.63-.092-4.923-0.228-7.661-0.436-0.39-.069-2.063-0.3-2.455-0.309-0.168-.006-0.226.048-0.23,0.16a0.985,0.985,0,0,0,.213.343l1.074,1.327a0.677,0.677,0,0,0,.49.409,9.9,9.9,0,0,0,1.181-.127c0.5,0.018,2.131-.038,7.056.134l6.548,0.229c1.287,0.045,1.6.728,1.576,1.4l-0.471,13.488c-0.071,2.014-.91,1.985-1.917,1.95l-10.69-.373c-2.63-.092-4.921-0.284-7.659-0.492-0.392-.014-2.121-0.242-2.457-0.254-0.168-.006-0.224-0.008-0.228.1a0.53,0.53,0,0,0,.21.4l1.075,1.326a0.6,0.6,0,0,0,.436.352c0.224,0.007,1.011-.077,1.235-0.069,0.506-.039,2.132-0.094,7.057.078l37.162,1.3c1.679,0.058,2.966.1,2.991-.624,0.018-.5-4.328-4.41-4.944-4.432-0.5-.017-0.681.257-2.441,2.493-0.76.926-1.04,0.916-3.615,0.826l-10.241-.358c-0.9-.031-1.563-0.166-1.758-1.013-0.046-.282.318-12.317,0.377-14,0.047-1.343.234-1.9,1.857-1.84l13.544,0.473c1.735,0.06,3.022.105,3.047-.622,0.018-.5-4.328-4.41-4.944-4.431-0.5-.018-0.679.2-2.5,2.434-0.7.928-.984,0.918-3.615,0.826l-5.54-.193c-1.735-.061-1.824-0.736-1.763-2.471,0.057-1.623.362-10.354,0.489-10.8a1.432,1.432,0,0,1,1.712-.892l15.335,0.535c1.679,0.059,2.966.1,2.991-.624,0.018-.5-4.328-4.41-4.944-4.431-0.5-.018-0.679.2-2.438,2.436-0.761.926-1.041,0.916-3.615,0.827l-7.22-.253c-1.735-.06-1.767-0.734-1.717-2.189,0.041-1.175.308-5.592,0.729-6.418a9.3,9.3,0,0,0,1.4-1.632c0.049-1.4-5.584-2.156-5.976-2.17s-0.62.09-.63,0.37,0.339,1.525.386,1.807a49.874,49.874,0,0,1,.107,6.559c-0.1,2.8-.121,3.47-1.856,3.41Zm20.863,89.318c1.025-.469,3.853,1.984,5.408,4,1.284,1.726,1.445,1.956,2.116,1.979a2.2,2.2,0,0,0,2.093-2.168c0.115-3.3-5.669-6.138-8.37-7.409-1.378-.664-1.532-1.062-1.684-3.14-0.115-1.517-.286-7.855-0.243-9.086,0.084-2.407.086-2.463,2.188-3.286s5.908-2.315,6-4.946c0.082-2.35-1.762-2.471-4.221-2.668-0.336-.012-3.242-0.226-3.184-1.905a2.44,2.44,0,0,1,.377-1.163,2.31,2.31,0,0,0,.665-1.378c0.074-2.127-3.648-3.041-4.768-3.08-1.175-.041-1.924.549-1.936,0.885-0.013.392,1.455,1.676,1.669,1.963,1.018,1.325.964,2.892,0.84,6.417-0.129,3.694-.129,3.694-3.207,3.587A16.747,16.747,0,0,1,382.551,313a9.854,9.854,0,0,0-1.483-.836,0.329,0.329,0,0,0-.294.382c-0.02.56,1.785,5.05,8.109,5.27a18.572,18.572,0,0,1,2.57.2,1.857,1.857,0,0,1,.4,1.359c0,1.569-.038,7.507-0.049,7.843-0.122,3.47-.135,3.862-1.534,3.813-11.479-.233-11.686,5.7-11.714,6.483-0.115,3.3,3.051,5.71,6.8,5.841a9.234,9.234,0,0,0,8.525-5.026C394.064,337.946,394.64,335.893,395.037,335.739Zm0.122-25.939a1.183,1.183,0,0,1,.679-0.2c0.784,0.027,2.6.82,2.57,1.827-0.045,1.287-2.195,1.884-2.979,1.857-0.392-.014-0.839-0.029-0.765-2.156A1.694,1.694,0,0,1,395.159,309.8Zm-8.18,24.033c3.582,0.125,4.35.6,4.316,1.551-0.066,1.9-3.574,4.47-6.876,4.355-1.959-.069-3.66-1.081-3.608-2.592C380.868,335.524,383.789,333.721,386.979,333.833Zm-16.023,1.513c0.057-1.623,1.906-9.627,1.968-11.418,0-.112.018-0.5-0.206-0.511-0.392-.014-2.241,4.8-2.49,5.516-1.115,3.043-1.179,3.265-1.683,3.247-1.343-.047-1.218-3.628-1.206-3.964a37.408,37.408,0,0,1,2.408-11.179c0.5-1.383,3.2-8.181,3.215-8.629,0.035-1.007-2.568-6.7-5.7-6.811a0.988,0.988,0,0,0-1.023.412,11.213,11.213,0,0,0,1,2,7.93,7.93,0,0,1,1.125,4.69c-0.061,1.735-.182,2.011-1.99,8.84a42.772,42.772,0,0,0-1.838,10.919c-0.3,8.675,2.3,14.369,5.1,14.467,1.287,0.044,1.884-1,1.927-2.231C371.582,339.907,370.927,336.186,370.956,335.346Zm35.467,32.171c0.184-5.261-9.229-8.5-11.188-8.572a0.507,0.507,0,0,0-.629.37,1.861,1.861,0,0,0,.76.7,15.831,15.831,0,0,1,5.668,6.194c1.729,3.422,1.939,3.822,3.059,3.861A2.625,2.625,0,0,0,406.423,367.517Zm-42.919,24a0.309,0.309,0,0,0-.344.213,7.541,7.541,0,0,0,.381,1.918,15.513,15.513,0,0,1,.279,3.26c-0.051,1.455-1.075,8.311-1.13,9.878-0.373,10.69,6.473,16.812,10.055,16.937a1.986,1.986,0,0,0,2.188-1.66,14.117,14.117,0,0,0-.384-1.863,7.544,7.544,0,0,1-.257-2.25,15.691,15.691,0,0,1,.876-4.228,6.725,6.725,0,0,0,.207-1.114,0.4,0.4,0,0,0-.264-0.457c-0.448-.016-1.446,1.294-1.8,1.842-1.776,2.74-2.01,3.012-2.962,2.979-1.734-.061-4.5-4.248-4.305-9.9a19.778,19.778,0,0,1,1.6-7.172,7.657,7.657,0,0,0,.749-2.215C368.44,396.169,366.078,391.6,363.5,391.513Zm26.515,6.081a0.432,0.432,0,0,0-.513.263c-0.012.336,2.166,2.149,2.6,2.612,2.863,3.07,2.781,5.42,2.619,10.065-0.026.728-.131,3.75,2.611,3.846,2.686,0.094,2.89-2.533,2.927-3.6a13.934,13.934,0,0,0-4.607-10.863A10.9,10.9,0,0,0,390.019,397.594Zm-10,48.848a38.6,38.6,0,0,1-.508,4.914c-0.132.555-.7,0.816-1.876,0.775a9.893,9.893,0,0,1-5.376-1.7c-0.164-.118-1.48-0.948-1.536-0.95a0.375,0.375,0,0,0-.238.384c-0.076,2.182,3.35,5.16,7.314,5.578,0.894,0.088,1.174.1,1.164,0.377,0,0.056-.706,7.372-0.768,7.538-0.429,1.05-4.178.919-5.522,0.872a21.815,21.815,0,0,1-6.736-1.244,13.8,13.8,0,0,0-2.1-.858c-0.167-.006-0.171.106-0.175,0.218a6.288,6.288,0,0,0,1.533,2.631c2.436,2.439,6.356,2.52,7.643,2.565,0.728,0.025,4.1-.138,4.879-0.11,0.559,0.019.548,0.355,0.53,0.859,0,1.513-.072,5.265-0.111,6.384-0.066,1.9-.072,2.071-0.688,2.049-0.391-.014-2.456-0.254-2.96-0.271-6.66-.233-10.164,2.222-10.281,5.58-0.08,2.3,1.692,6.111,6.953,6.3,4.589,0.16,8.444-2.731,9.711-5.321,0.3-.606.423-0.881,0.759-0.87,0.616,0.022,2.742,1.721,3.812,3.159,1.931,2.477,2.145,2.765,2.928,2.792a2.168,2.168,0,0,0,1.985-2.284c0.092-2.63-3.386-5.722-7.689-7.665-1.16-.489-1.152-0.713-1.311-2.567-0.037-.562-0.427-7.019-0.39-8.083,0.019-.559.189-0.61,1.946-1.165,2.6-.749,8.9-3.107,8.974-5.065,0.043-1.232-1.408-1.394-3.7-1.642-0.28-.01-1.445-0.331-1.725-0.341-0.112,0-.28-0.01-0.286.158s0.2,0.848.189,1.015c-0.063,1.791-4.131,2.77-4.747,2.748-0.728-.025-0.716-0.361-0.671-1.648,0.08-2.3.408-5.253,0.469-5.419,0.086-.837.2-0.889,0.651-0.986,1.585-.449,5.43-1.435,5.5-3.506,0.031-.895-1.026-1.1-1.586-1.12a6.718,6.718,0,0,0-2.03.377,6.511,6.511,0,0,1-1.585.449,0.264,0.264,0,0,1-.212-0.343,13.072,13.072,0,0,1,.966-3.609,16.018,16.018,0,0,0,1.5-2.917c0.041-1.175-2.932-2.68-4.443-2.733-0.336-.011-1.4-0.049-1.413.343,0,0.112.312,0.684,0.362,0.853A10.635,10.635,0,0,1,380.021,446.442ZM377.5,480.2c0.206,0.511-.344,1.837-1.383,2.7a9.238,9.238,0,0,1-5.613,1.877c-1.567-.054-4.454-0.828-4.379-2.954,0.111-3.19,5.987-2.985,6.1-2.981C373.229,478.873,377.139,479.234,377.5,480.2Zm23.923,30.59c0.184-5.26-9.229-8.5-11.188-8.571a0.507,0.507,0,0,0-.629.37,1.861,1.861,0,0,0,.76.7,15.832,15.832,0,0,1,5.667,6.193c1.73,3.423,1.94,3.822,3.059,3.862A2.626,2.626,0,0,0,401.42,510.789ZM380.4,563.9a0.746,0.746,0,0,1,.927.705c-0.027.783-4.362,6.179-5.537,6.138-1.455-.05-6.032-5.365-5.995-6.429,0.013-.392.139-0.779,2.266-0.7Zm-0.713-24.512c-1.4-.048-1.666-0.45-1.605-2.185,0.031-.895.064-1.847,0.524-2.167,0.747-.534.805-0.588,0.817-0.924a1.008,1.008,0,0,0-.982-0.763c-0.836-.141-4.786-0.951-5.066-0.961-0.168-.006-0.448-0.016-0.456.208a9.051,9.051,0,0,0,.353,1.133,7.335,7.335,0,0,1,.3,2.644c-0.082,2.351-.322,2.791-2.056,2.73l-10.3-.36c-1.455-.05-4.531-0.214-7.66-0.491-0.391-.014-2.064-0.24-2.456-0.254-0.168-.006-0.226.048-0.228,0.1a0.963,0.963,0,0,0,.21.4l1.075,1.326a0.745,0.745,0,0,0,.492.353c0.167,0.006.955-.078,1.179-0.071,1.235-.069,2.916-0.066,7.057.079l5.765,0.2c0.951,0.033,1.673.227,1.626,1.57a27.025,27.025,0,0,1-2.866,9.874c-2.343,4.513-6.269,6.225-11.221,8.405-0.569.26-1.422,0.623-.807,0.644a21.988,21.988,0,0,0,9.34-2.7c4.288-2.428,7.956-6.39,9.654-14.9,0.476-2.393.486-2.673,2.109-2.616l3.973,0.138a1.414,1.414,0,0,1,1.683,1.572c0,1.681-.134,5.431-0.2,7.222-0.132,3.8-.146,4.2-1.779,4.42-0.506.039-3.19-.111-3.75-0.131-0.112,0-.391-0.013-0.395.1a6.079,6.079,0,0,0,1.208.715,4.648,4.648,0,0,1,2.152,2.541c0.451,1.528.5,1.81,1.393,1.841a5.356,5.356,0,0,0,2.9-1.075,4.879,4.879,0,0,0,2.115-4.409c0.061-1.735.107-9.466,0.155-10.865,0.036-1.008.285-1.727,1.852-1.673l12.7,0.444c1.791,0.063,2.966.1,2.992-.624,0.011-.336-3.6-4.328-5.114-4.381-0.56-.02-0.736.2-2.215,2.444-0.649.93-1.321,0.907-3.615,0.827Zm-6.51,22.747c-0.392-.014-0.9-0.031-0.88-0.479a2,2,0,0,1,1.158-1.08,1.387,1.387,0,0,0,.933-1.032c0.019-.56-1.576-1.4-2.734-1.945a10.537,10.537,0,0,0-2.149-1.028c-0.28-.009-1.2,2.368-1.443,2.808-2.94,5.557-8.052,9.132-13.4,11.3A17.624,17.624,0,0,0,352,571.71a0.238,0.238,0,0,0,.272.233,28.519,28.519,0,0,0,12.924-4.255,33.989,33.989,0,0,1,3.5-2.455,0.9,0.9,0,0,1,.762.642,30.778,30.778,0,0,0,3.674,5.508,1.748,1.748,0,0,1,.579,1.085c-0.026.727-3.777,3.846-12.889,6.442a87.369,87.369,0,0,1-9.6,2.13,0.8,0.8,0,0,0-.628.315c-0.007.223,0.5,0.241,0.664,0.247,3.526,0.123,15.764-.514,23.673-5.561a3.6,3.6,0,0,1,1.708-.781c0.336,0.011.5,0.073,1.708,0.844a44.45,44.45,0,0,0,17.543,6.272c0.56,0.019.913-.472,1.224-1.358a11.818,11.818,0,0,1,2.758-3.546,5.22,5.22,0,0,0,.818-0.98c-0.387-.126-5.382.092-6.277,0.061-8.787-.307-14.753-2.757-14.72-3.708,0.012-.336.473-0.712,1.4-1.576a51.215,51.215,0,0,0,5.7-5.965c0.644-.818.756-0.814,2-1.051a1.313,1.313,0,0,0,1.211-.966c0.041-1.175-4.186-3.676-4.466-3.686-0.616-.022-2.543,2.208-2.946,2.53-0.346.269-.628,0.315-1.859,0.272Zm-14.267-19.886c-0.172.106-.7,2.385-0.883,2.827a36.594,36.594,0,0,1-7.715,10.713c-0.114.052-.291,0.326-0.067,0.334a10.967,10.967,0,0,0,1.816-.665,22.764,22.764,0,0,0,7.425-5.624c0.349-.38,2.045-2.394,2.508-2.826,0.234-.272,1.886-1.055,1.9-1.447s-0.317-.571-3.44-2.586C359.634,542.446,359.14,542.149,358.912,542.253Zm28.43,2.618a0.491,0.491,0,0,0,.38.349c2.3,1.426,5.237,5.674,6.272,8.12,1.4,3.355,1.552,3.7,2.5,3.73,1.063,0.037,2.283-1.209,2.352-3.168,0.14-4.03-7.081-9.045-11.166-9.187A0.339,0.339,0,0,0,387.342,544.871ZM367.492,595a0.256,0.256,0,0,0-.233.272c-0.01.279,0.134,0.957,1.828,2.193,1.146,0.88,2.022,1.471,2.011,1.807-0.024.672-2.63,3.1-2.644,3.494a0.256,0.256,0,0,0,.214.288c0.336,0.011,1.934-.829,2.33-0.928,1.361-.457,1.473-0.453,5.39-0.316a1.568,1.568,0,0,0,1.622-1.512c0.053-1.511-1.581-2.857-3.411-3.425-0.721-.194-4.614-1.058-5.445-1.311C368.876,595.5,367.66,595.006,367.492,595Zm-0.547,15.67a9,9,0,0,1-2.726-.544c-0.112,0-1.386-.44-1.554-0.446a0.4,0.4,0,0,0-.407.434c-0.02.56,1.407,4.644,4.653,4.757,1.623,0.057,3.285-1.006,4.609-2.024,0.807-.644,2.415-1.765,3.2-1.737a0.857,0.857,0,0,1,.918.984c-0.057,1.623-4.588,6.228-9.587,11.376-9.528,9.7-9.55,10.313-9.6,11.825a2.064,2.064,0,0,0,1.945,2.085c1.9,0.066,2.857-1.582,4.524-4.381,3.277-5.6,7.006-6.48,8.125-6.44,1.679,0.058,1.662.562,1.615,5.1-0.079,3.864.75,7.423,7.41,7.655,6.044,0.211,10.707-.13,10.812-3.152,0.045-1.288-1.381-2.178-2.892-2.231-1.4-.048-8.336,1.222-9.9,1.167a2.946,2.946,0,0,1-3.136-3.247c0.019-.56.443-3.066,0.463-3.626A4.224,4.224,0,0,0,371.467,624c-0.168-.006-1.123.073-1.235,0.069a0.48,0.48,0,0,1-.548-0.356c0.015-.447,3.655-3.57,4.292-4.164,4.506-3.877,6.7-5.762,6.771-7.777,0.059-1.679-1.627-3.138-3.866-3.217a7.164,7.164,0,0,0-2.364.31C369.414,610.589,368.848,610.737,366.945,610.671ZM359.2,660.719c-0.168-.006-0.562.037-0.572,0.317,0,0.055,1.813,2.64,2.08,3.042a3.7,3.7,0,0,0,2.523,1.545c1.623,0.057,8.715-4.066,10.506-4a0.56,0.56,0,0,1,.594.637c-0.076,2.183-15.881,18.329-20.179,22.662-2.207,2.22-3.077,3.086-3.15,5.157a2.073,2.073,0,0,0,1.987,2.479c1.623,0.056,2.276-.985,4.472-4.5,2.732-4.443,10.858-10.884,19.589-10.579,7.275,0.254,7.566,6.372,7.509,8-0.344,9.85-16.682,13.987-17.247,14.135-1.979.491-2.205,0.539-2.216,0.875-0.008.224,0.324,0.348,0.827,0.365,3.19,0.112,23.015-2.782,23.424-14.479,0.187-5.373-4.482-11.251-11.7-11.5a24.948,24.948,0,0,0-8.623,1.435,20.066,20.066,0,0,1-3.065,1.126c-0.336-.012-0.386-0.181-0.382-0.293,0.013-.392,6.893-8.053,10.58-10.95,2.591-1.982,3.917-3.057,3.988-5.072,0.049-1.4-1.344-3.24-4.086-3.336-1.847-.065-2.473.194-4.69,1.125-1.081.466-7.026,2.22-9.209,2.144C361.713,661.031,359.482,660.729,359.2,660.719Zm28.786,56.591a6.216,6.216,0,1,0,5.994,6.486A6.322,6.322,0,0,0,387.988,717.31Zm-0.166,1.564a4.708,4.708,0,0,1,4.591,4.923,4.577,4.577,0,0,1-4.8,4.371,4.685,4.685,0,0,1-4.539-4.81A4.575,4.575,0,0,1,387.822,718.874Z" transform="translate(-350.156 -171.312)"/>
</svg>
