<svg id="レイヤー_1" data-name="レイヤー 1" xmlns="http://www.w3.org/2000/svg" xmlns:xlink="http://www.w3.org/1999/xlink" viewBox="0 0 593.56 63.61"><defs><style>.cls-1{fill:#c71528;}.cls-2{fill:url(#新規グラデーションスウォッチ_1);}.cls-3{fill:url(#新規グラデーションスウォッチ_1-2);}.cls-4{fill:url(#新規グラデーションスウォッチ_1-3);}.cls-5{fill:url(#新規グラデーションスウォッチ_1-4);}.cls-6{fill:url(#新規グラデーションスウォッチ_1-5);}.cls-7{fill:url(#新規グラデーションスウォッチ_1-6);}.cls-8{fill:url(#新規グラデーションスウォッチ_1-7);}.cls-9{fill:url(#新規グラデーションスウォッチ_1-8);}.cls-10{fill:url(#新規グラデーションスウォッチ_1-9);}.cls-11{fill:url(#新規グラデーションスウォッチ_1-10);}.cls-12{fill:url(#新規グラデーションスウォッチ_1-11);}.cls-13{fill:url(#新規グラデーションスウォッチ_1-12);}.cls-14{fill:url(#新規グラデーションスウォッチ_1-13);}.cls-15{fill:url(#新規グラデーションスウォッチ_1-14);}.cls-16{fill:url(#新規グラデーションスウォッチ_1-15);}.cls-17{fill:url(#新規グラデーションスウォッチ_1-16);}.cls-18{fill:url(#新規グラデーションスウォッチ_1-17);}.cls-19{fill:url(#新規グラデーションスウォッチ_1-18);}.cls-20{fill:url(#新規グラデーションスウォッチ_1-19);}.cls-21{fill:url(#新規グラデーションスウォッチ_1-20);}.cls-22{fill:url(#新規グラデーションスウォッチ_1-21);}.cls-23{fill:url(#新規グラデーションスウォッチ_1-22);}.cls-24{fill:url(#新規グラデーションスウォッチ_1-23);}.cls-25{fill:url(#新規グラデーションスウォッチ_1-24);}.cls-26{fill:url(#新規グラデーションスウォッチ_1-25);}.cls-27{fill:url(#新規グラデーションスウォッチ_1-26);}.cls-28{fill:url(#新規グラデーションスウォッチ_1-27);}.cls-29{fill:url(#新規グラデーションスウォッチ_1-28);}.cls-30{fill:url(#新規グラデーションスウォッチ_1-29);}.cls-31{fill:url(#新規グラデーションスウォッチ_1-30);}.cls-32{fill:url(#新規グラデーションスウォッチ_1-31);}.cls-33{fill:url(#新規グラデーションスウォッチ_1-32);}.cls-34{fill:url(#新規グラデーションスウォッチ_1-33);}.cls-35{fill:#bc1b29;}</style><linearGradient id="新規グラデーションスウォッチ_1" x1="58.52" y1="52.61" x2="26.77" y2="-1.94" gradientUnits="userSpaceOnUse"><stop offset="0" stop-color="#f6aa00"/><stop offset="0.08" stop-color="#f29100"/><stop offset="0.16" stop-color="#ef7d00"/><stop offset="0.25" stop-color="#ed7000"/><stop offset="0.33" stop-color="#ec6c00"/><stop offset="0.52" stop-color="#e0500d"/><stop offset="0.84" stop-color="#ce2520"/><stop offset="1" stop-color="#c71528"/></linearGradient><linearGradient id="新規グラデーションスウォッチ_1-2" x1="47.61" y1="58.95" x2="15.86" y2="4.42" xlink:href="#新規グラデーションスウォッチ_1"/><linearGradient id="新規グラデーションスウォッチ_1-3" x1="62.44" y1="50.31" x2="30.69" y2="-4.22" xlink:href="#新規グラデーションスウォッチ_1"/><linearGradient id="新規グラデーションスウォッチ_1-4" x1="51.41" y1="56.74" x2="19.66" y2="2.2" xlink:href="#新規グラデーションスウォッチ_1"/><linearGradient id="新規グラデーションスウォッチ_1-5" x1="36.69" y1="65.31" x2="4.94" y2="10.77" xlink:href="#新規グラデーションスウォッチ_1"/><linearGradient id="新規グラデーションスウォッチ_1-6" x1="32.77" y1="67.59" x2="1.02" y2="13.05" xlink:href="#新規グラデーションスウォッチ_1"/><linearGradient id="新規グラデーションスウォッチ_1-7" x1="43.8" y1="61.17" x2="12.05" y2="6.63" xlink:href="#新規グラデーションスウォッチ_1"/><linearGradient id="新規グラデーションスウォッチ_1-8" x1="58.64" y1="52.53" x2="26.89" y2="-2" xlink:href="#新規グラデーションスウォッチ_1"/><linearGradient id="新規グラデーションスウォッチ_1-9" x1="60.48" y1="51.46" x2="28.72" y2="-3.07" xlink:href="#新規グラデーションスウォッチ_1"/><linearGradient id="新規グラデーションスウォッチ_1-10" x1="47.8" y1="58.84" x2="16.05" y2="4.3" xlink:href="#新規グラデーションスウォッチ_1"/><linearGradient id="新規グラデーションスウォッチ_1-11" x1="49.64" y1="57.77" x2="17.89" y2="3.23" xlink:href="#新規グラデーションスウォッチ_1"/><linearGradient id="新規グラデーションスウォッチ_1-12" x1="65.44" y1="48.57" x2="33.69" y2="-5.97" xlink:href="#新規グラデーションスウォッチ_1"/><linearGradient id="新規グラデーションスウォッチ_1-13" x1="69.83" y1="46.01" x2="38.08" y2="-8.52" xlink:href="#新規グラデーションスウォッチ_1"/><linearGradient id="新規グラデーションスウォッチ_1-14" x1="67.48" y1="47.38" x2="35.73" y2="-7.15" xlink:href="#新規グラデーションスウォッチ_1"/><linearGradient id="新規グラデーションスウォッチ_1-15" x1="73.2" y1="44.06" x2="41.45" y2="-10.48" xlink:href="#新規グラデーションスウォッチ_1"/><linearGradient id="新規グラデーションスウォッチ_1-16" x1="65.31" y1="48.65" x2="33.56" y2="-5.89" xlink:href="#新規グラデーションスウォッチ_1"/><linearGradient id="新規グラデーションスウォッチ_1-17" x1="69.69" y1="46.09" x2="37.95" y2="-8.43" xlink:href="#新規グラデーションスウォッチ_1"/><linearGradient id="新規グラデーションスウォッチ_1-18" x1="58.41" y1="52.66" x2="26.66" y2="-1.88" xlink:href="#新規グラデーションスウォッチ_1"/><linearGradient id="新規グラデーションスウォッチ_1-19" x1="60.22" y1="51.61" x2="28.47" y2="-2.92" xlink:href="#新規グラデーションスウォッチ_1"/><linearGradient id="新規グラデーションスウォッチ_1-20" x1="47.47" y1="59.03" x2="15.72" y2="4.49" xlink:href="#新規グラデーションスウォッチ_1"/><linearGradient id="新規グラデーションスウォッチ_1-21" x1="47.48" y1="59.03" x2="15.73" y2="4.5" xlink:href="#新規グラデーションスウォッチ_1"/><linearGradient id="新規グラデーションスウォッチ_1-22" x1="36.58" y1="65.37" x2="4.83" y2="10.83" xlink:href="#新規グラデーションスウォッチ_1"/><linearGradient id="新規グラデーションスウォッチ_1-23" x1="34.75" y1="66.44" x2="2.99" y2="11.9" xlink:href="#新規グラデーションスウォッチ_1"/><linearGradient id="新規グラデーションスウォッチ_1-24" x1="29.78" y1="69.33" x2="-1.97" y2="14.8" xlink:href="#新規グラデーションスウォッチ_1"/><linearGradient id="新規グラデーションスウォッチ_1-25" x1="25.39" y1="71.89" x2="-6.36" y2="17.35" xlink:href="#新規グラデーションスウォッチ_1"/><linearGradient id="新規グラデーションスウォッチ_1-26" x1="27.74" y1="70.52" x2="-4.01" y2="15.98" xlink:href="#新規グラデーションスウォッチ_1"/><linearGradient id="新規グラデーションスウォッチ_1-27" x1="22.02" y1="73.85" x2="-9.73" y2="19.31" xlink:href="#新規グラデーションスウォッチ_1"/><linearGradient id="新規グラデーションスウォッチ_1-28" x1="29.91" y1="69.26" x2="-1.84" y2="14.72" xlink:href="#新規グラデーションスウォッチ_1"/><linearGradient id="新規グラデーションスウォッチ_1-29" x1="25.53" y1="71.81" x2="-6.22" y2="17.27" xlink:href="#新規グラデーションスウォッチ_1"/><linearGradient id="新規グラデーションスウォッチ_1-30" x1="36.81" y1="65.24" x2="5.06" y2="10.7" xlink:href="#新規グラデーションスウォッチ_1"/><linearGradient id="新規グラデーションスウォッチ_1-31" x1="35.01" y1="66.3" x2="3.25" y2="11.75" xlink:href="#新規グラデーションスウォッチ_1"/><linearGradient id="新規グラデーションスウォッチ_1-32" x1="47.75" y1="58.87" x2="16" y2="4.33" xlink:href="#新規グラデーションスウォッチ_1"/><linearGradient id="新規グラデーションスウォッチ_1-33" x1="47.74" y1="58.88" x2="15.99" y2="4.34" xlink:href="#新規グラデーションスウォッチ_1"/></defs><title>logo</title><path class="cls-1" d="M220.14,13.88h7.77c7.72,0,17.38-.93,17.38,8.46,0,5-2.83,8.61-7.41,9.23v.1c2,.16,3.09,2.49,3.81,4.09l5.77,14.06h-8l-4-11.23a5.92,5.92,0,0,0-6-4.08h-1.29V49.82h-7.93Zm7.93,15.34h1.34c3.56,0,9.12.11,9.12-5.65,0-5.4-5.51-5-9.12-5h-1.34Z"/><path class="cls-1" d="M267.6,13.27c11.87,0,18.54,7.61,18.54,18.48s-6.56,18.68-18.54,18.68c-12.14,0-18.54-7.67-18.54-18.68s6.5-18.48,18.54-18.48m0,32.23c7.75,0,10-7.27,10-13.75s-2.46-13.55-10-13.55-10,7.21-10,13.55,2.22,13.75,10,13.75"/><path class="cls-1" d="M291.54,13.88h8V35.67c0,6.13,1.36,9.84,6.86,9.84s6.72-3.71,6.72-9.84V13.88H321v23c0,9.63-5.45,13.59-14.67,13.59s-14.82-4-14.82-13.59Z"/><path class="cls-1" d="M328.16,13.89h9.11c7.83,0,15.73.83,15.73,10,0,8.87-6.87,10.68-14.59,10.68h-2.49V49.82h-7.76Zm7.76,15.72h2c3.61,0,8.5-.54,8.5-5.65,0-5.33-4.79-5.31-8.5-5.31h-2Z"/><path class="cls-1" d="M212.73,29.22H198.2v4.63h7.63V45a29.6,29.6,0,0,1-3.32.21c-8.25,0-12.76-6.34-12.76-13.65s4.63-13.86,12.59-13.86a18.87,18.87,0,0,1,8.89,1.91l0-5.24a27.2,27.2,0,0,0-8.74-1.49c-13.11,0-21.19,6.89-21.19,19.2,0,12.14,8.68,18,21.19,18a52,52,0,0,0,10.22-1.5v0h0V33.85h0Z"/><path class="cls-2" d="M35.67,16.57a.26.26,0,0,0,.45.12l1-.86a1,1,0,0,0,.28-.7l-.22-2.39c0-.23-.15-.27-.29-.08l-1.44,1.92a.94.94,0,0,0-.13.75Z"/><path class="cls-3" d="M44.54,31.34l3.59,3.19c.17.16.26.1.19-.12l-1.93-6c-.07-.22-.17-.59-.22-.82l-1.31-6.13c0-.23-.15-.24-.22,0L43.11,26a.57.57,0,0,1-.56.36l-4.72-.47-.45-4.71a.57.57,0,0,1,.37-.56l4.55-1.51c.23-.07.22-.17,0-.22l-6.2-1.35a7.66,7.66,0,0,1-.82-.23l-6-1.93c-.22-.07-.28,0-.12.19l3.18,3.6a.56.56,0,0,1,0,.66l-2.76,3.86-4.3-2a.56.56,0,0,1-.31-.59l1-4.7c0-.23-.05-.28-.2-.11L21.52,21c-.15.17-.43.44-.6.6l-4.66,4.2c-.17.15-.12.25.11.2l4.7-1a.58.58,0,0,1,.6.31l1.95,4.32-3.85,2.74a.57.57,0,0,1-.67,0l-3.58-3.19c-.18-.16-.27-.11-.19.12l1.92,6a8.48,8.48,0,0,1,.22.83l1.31,6.13c0,.23.15.24.23,0l1.52-4.55a.56.56,0,0,1,.56-.36l4.72.47.45,4.7a.55.55,0,0,1-.36.56l-4.56,1.51c-.22.07-.22.18,0,.23l6.2,1.35c.23,0,.6.15.83.22l6,1.93c.22.08.28,0,.12-.19l-3.18-3.59a.57.57,0,0,1,0-.67L34,40.05l4.3,2a.57.57,0,0,1,.3.6l-1,4.7c0,.23,0,.28.2.1l4.27-4.69c.16-.18.43-.45.6-.6l4.66-4.2c.17-.16.13-.25-.1-.21l-4.71,1a.56.56,0,0,1-.59-.3L40,34.05l3.85-2.75A.54.54,0,0,1,44.54,31.34Zm-2.82-1.79-1.9,4.33a.08.08,0,0,0,0,0h0c0,.1,0,.16,0,.2l-.53,4.66a.57.57,0,0,1-.47.47l-4.71.52H34c-.11,0-.16,0-.18.08L29.5,41.74a.56.56,0,0,1-.64-.18l-2.8-3.81,0,0v0c-.06-.08-.12-.12-.15-.11l-3.78-2.8a.58.58,0,0,1-.17-.64l1.9-4.33,0,0v0c0-.09,0-.16,0-.19l.53-4.66a.56.56,0,0,1,.47-.47l4.71-.52h.07a.25.25,0,0,0,.18-.07L34.14,22a.56.56,0,0,1,.64.17l2.81,3.82,0,0,0,0c.06.09.11.12.15.12l3.77,2.79A.56.56,0,0,1,41.72,29.55Z"/><path class="cls-4" d="M49.07,28.29l2-1.38c.19-.14.16-.27-.08-.3l-2.38-.29a.94.94,0,0,0-.71.26l-.88,1a.26.26,0,0,0,.11.45l1.23.41A1,1,0,0,0,49.07,28.29Z"/><path class="cls-5" d="M44.39,43.1l-1.26-.29a.26.26,0,0,0-.33.33l.25,1.27a.94.94,0,0,0,.48.59l2.17,1c.22.1.31,0,.22-.21L45,43.59A.93.93,0,0,0,44.39,43.1Z"/><path class="cls-6" d="M28,47.12a.25.25,0,0,0-.44-.12l-1,.85a.94.94,0,0,0-.28.71L26.49,51c0,.23.16.27.3.08l1.44-1.92a1,1,0,0,0,.13-.75Z"/><path class="cls-7" d="M12.69,37.08l2.38.28a1,1,0,0,0,.72-.26l.88-1a.26.26,0,0,0-.12-.45l-1.22-.41a.93.93,0,0,0-.76.11l-2,1.38C12.42,36.92,12.46,37.05,12.69,37.08Z"/><path class="cls-8" d="M19.25,20.58l1.27.29c.23.05.38-.09.33-.32l-.26-1.27a1,1,0,0,0-.47-.6l-2.18-1c-.21-.1-.31,0-.22.21l1,2.21A.93.93,0,0,0,19.25,20.58Z"/><path class="cls-9" d="M25.07,4.94l4,2.64a.57.57,0,0,1,.2.63l-1.68,4.5c-.08.22,0,.28.18.13l3.75-3a.59.59,0,0,1,.67,0l3.76,3c.18.15.27.09.18-.13L34.46,8.2a.55.55,0,0,1,.2-.63l4-2.65c.19-.13.16-.23-.07-.22L32.26,5a6,6,0,0,1-.85,0l-6.27-.3C24.91,4.71,24.88,4.81,25.07,4.94Z"/><path class="cls-10" d="M31.61,4.25a.25.25,0,0,0,.46,0l.72-1.08a1,1,0,0,0,.08-.76L32,.17c-.08-.22-.22-.23-.31,0l-.89,2.23a1,1,0,0,0,.07.76Z"/><path class="cls-11" d="M38.6,29.62l-6.34.32h-.85l-6.27-.3c-.23,0-.26.08-.07.21l4,2.64a.58.58,0,0,1,.2.64l-1.68,4.49c-.08.22,0,.28.18.14l3.75-3a.57.57,0,0,1,.67,0l3.76,3c.18.15.27.09.18-.13l-1.69-4.49a.56.56,0,0,1,.2-.64l4-2.65C38.86,29.7,38.83,29.61,38.6,29.62Z"/><path class="cls-12" d="M31.61,29.16a.25.25,0,0,0,.46,0l.72-1.08a1,1,0,0,0,.08-.75L32,25.08c-.08-.22-.22-.22-.31,0l-.89,2.23a1,1,0,0,0,.07.75Z"/><path class="cls-13" d="M41.57,9.46a.56.56,0,0,1-.14.65l-3.71,3.06c-.18.15-.14.24.09.21l4.75-.73a.58.58,0,0,1,.58.34l1.76,4.46c.09.22.19.21.23,0l.78-4.74a.56.56,0,0,1,.49-.45L51.19,12c.24,0,.26-.11.05-.22L45.59,8.84c-.21-.11-.54-.3-.74-.43L39.58,5c-.2-.13-.28-.06-.17.15Z"/><path class="cls-14" d="M45.82,8.08,47,7.49a1,1,0,0,0,.46-.61l.4-2.36c0-.23-.08-.3-.27-.16L45.68,5.85a1,1,0,0,0-.32.69l.06,1.3A.26.26,0,0,0,45.82,8.08Z"/><path class="cls-15" d="M51,17.83l-4.73.79c-.23,0-.24.14,0,.23L50.7,20.6a.54.54,0,0,1,.33.57l-.71,4.75c0,.23.06.28.21.1l3-3.72a.58.58,0,0,1,.66-.14l4.29,2.14c.21.11.28,0,.15-.16l-3.44-5.33c-.13-.2-.32-.53-.43-.74l-2.87-5.58c-.11-.2-.21-.18-.22,0l-.28,4.8A.55.55,0,0,1,51,17.83Z"/><path class="cls-16" d="M55.81,18.26l1.29.08a1,1,0,0,0,.7-.31l1.52-1.84c.15-.19.09-.31-.15-.27l-2.37.35a.93.93,0,0,0-.62.44l-.6,1.15A.25.25,0,0,0,55.81,18.26Z"/><path class="cls-17" d="M50.78,36c-.14.18-.08.27.14.18l4.49-1.69a.55.55,0,0,1,.63.2l2.66,4c.12.19.22.16.21-.07l-.32-6.34c0-.24,0-.62,0-.85l.3-6.27c0-.23-.09-.26-.22-.07l-2.63,4a.58.58,0,0,1-.64.2l-4.5-1.68c-.21-.08-.27,0-.13.18l3,3.75a.55.55,0,0,1,0,.67Z"/><path class="cls-18" d="M63.45,31.73l-2.23-.89a1,1,0,0,0-.76.08l-1.09.69a.25.25,0,0,0,0,.46l1.09.72a1,1,0,0,0,.75.08L63.45,32C63.67,32,63.67,31.82,63.45,31.73Z"/><path class="cls-19" d="M58.44,39.41l-4.29,2.16a.57.57,0,0,1-.65-.14l-3.06-3.71c-.14-.18-.24-.14-.2.1L51,42.56a.56.56,0,0,1-.33.58L46.16,44.9c-.22.09-.21.19,0,.23l4.74.77a.57.57,0,0,1,.45.5l.29,4.79c0,.24.12.26.22.05l2.9-5.65a7.78,7.78,0,0,1,.42-.74l3.39-5.27C58.72,39.38,58.65,39.3,58.44,39.41Z"/><path class="cls-20" d="M57.76,45.68a.94.94,0,0,0-.69-.32l-1.3.06a.25.25,0,0,0-.23.4L56.12,47a1,1,0,0,0,.61.46l2.36.4c.23,0,.31-.08.16-.27Z"/><path class="cls-21" d="M51.07,51.71l-4.79-.28a.56.56,0,0,1-.5-.45L45,46.25c0-.23-.14-.24-.23,0L43,50.7a.56.56,0,0,1-.58.33l-4.75-.71c-.23,0-.27.06-.09.21l3.71,3a.56.56,0,0,1,.14.65l-2.14,4.3c-.1.21,0,.28.17.15l5.33-3.44c.19-.13.53-.32.73-.43l5.58-2.87C51.33,51.82,51.31,51.72,51.07,51.71Z"/><path class="cls-22" d="M47.35,56.8a1,1,0,0,0-.44-.62l-1.15-.6a.26.26,0,0,0-.41.23l-.07,1.29a1,1,0,0,0,.3.7l1.85,1.52c.18.15.3.09.27-.15Z"/><path class="cls-23" d="M38.54,58.67l-4-2.63a.57.57,0,0,1-.21-.64L36,50.9c.09-.21,0-.27-.18-.13l-3.75,3a.55.55,0,0,1-.67,0l-3.75-3c-.19-.14-.27-.08-.19.14l1.7,4.49A.55.55,0,0,1,29,56L25,58.7c-.2.13-.17.22.07.21l6.33-.32c.24,0,.62,0,.86,0l6.26.3C38.71,58.9,38.74,58.8,38.54,58.67Z"/><path class="cls-24" d="M32,59.37a.25.25,0,0,0-.46,0l-.71,1.08a1,1,0,0,0-.09.76l.84,2.25c.08.22.22.22.3,0l.89-2.23a.89.89,0,0,0-.07-.75Z"/><path class="cls-25" d="M22.05,54.15a.55.55,0,0,1,.14-.65l3.7-3.06c.18-.14.14-.24-.09-.2L21.05,51a.56.56,0,0,1-.58-.33l-1.75-4.47c-.09-.22-.19-.21-.23,0l-.78,4.74a.56.56,0,0,1-.49.45l-4.8.29c-.23,0-.25.12,0,.22L18,54.78c.21.1.55.3.74.42L24,58.59c.19.13.27.06.17-.15Z"/><path class="cls-26" d="M17.8,55.54l-1.16.58a.94.94,0,0,0-.45.61l-.4,2.36c0,.24.08.31.26.16l1.88-1.49a.9.9,0,0,0,.32-.69l-.05-1.3A.25.25,0,0,0,17.8,55.54Z"/><path class="cls-27" d="M12.63,45.78,17.37,45c.23,0,.24-.14,0-.23L12.92,43a.58.58,0,0,1-.34-.58l.71-4.75c0-.23-.06-.27-.21-.09l-3,3.71a.55.55,0,0,1-.65.14l-4.3-2.14c-.21-.1-.28,0-.15.17l3.45,5.33c.12.19.32.53.42.74l2.87,5.57c.11.21.21.19.23,0l.27-4.79A.59.59,0,0,1,12.63,45.78Z"/><path class="cls-28" d="M7.81,45.35l-1.29-.07a1,1,0,0,0-.7.3L4.29,47.43c-.15.18-.08.3.15.27l2.38-.35a1,1,0,0,0,.62-.44L8,45.76A.26.26,0,0,0,7.81,45.35Z"/><path class="cls-29" d="M4.72,38.47c0,.23.09.27.22.07l2.64-4a.55.55,0,0,1,.63-.21L12.71,36c.22.09.28,0,.13-.18l-3-3.75a.59.59,0,0,1,0-.67l3-3.75c.15-.19.09-.27-.13-.19l-4.5,1.7A.55.55,0,0,1,7.57,29L4.92,25c-.13-.2-.23-.17-.21.07L5,31.36a6,6,0,0,1,0,.85Z"/><path class="cls-30" d="M4.25,31.54l-1.08-.71a1,1,0,0,0-.76-.09l-2.24.84c-.22.08-.23.22,0,.3l2.23.89a.92.92,0,0,0,.76-.07l1.1-.7A.25.25,0,0,0,4.25,31.54Z"/><path class="cls-31" d="M5.17,24.21l4.29-2.16a.55.55,0,0,1,.65.14l3.06,3.7c.15.18.24.14.21-.09l-.73-4.75a.56.56,0,0,1,.34-.57l4.46-1.76c.22-.09.21-.19,0-.23l-4.74-.78a.57.57,0,0,1-.45-.5L12,12.42c0-.23-.11-.25-.22,0L8.84,18c-.11.21-.3.55-.43.74L5,24C4.89,24.23,5,24.31,5.17,24.21Z"/><path class="cls-32" d="M5.85,17.93a.94.94,0,0,0,.69.32l1.3-.06a.25.25,0,0,0,.24-.39l-.59-1.16a.91.91,0,0,0-.61-.45l-2.36-.4c-.23,0-.3.08-.16.26Z"/><path class="cls-33" d="M12.54,11.91l4.79.27a.57.57,0,0,1,.5.45l.79,4.74c0,.23.14.24.23,0l1.75-4.47a.56.56,0,0,1,.57-.34l4.75.71c.24,0,.28-.06.09-.21L22.3,10a.57.57,0,0,1-.14-.65l2.14-4.3c.11-.21,0-.28-.16-.15L18.81,8.39c-.2.12-.53.32-.74.42L12.5,11.68C12.29,11.79,12.31,11.89,12.54,11.91Z"/><path class="cls-34" d="M16.27,6.82a.93.93,0,0,0,.44.62l1.15.6a.26.26,0,0,0,.4-.23l.08-1.29a1,1,0,0,0-.31-.7L16.19,4.29c-.18-.15-.31-.08-.27.15Z"/><path class="cls-1" d="M69.85,49.93H81.17V35H97.36V28.93H81.17V20.15H98.25V14.09H69.85Z"/><path class="cls-1" d="M122.05,13.39c-12.5,0-20.9,7.47-20.9,18.59,0,8.42,5.3,18.45,20.24,18.45a30.06,30.06,0,0,0,14.06-3.34V39.66c-4.53,2.6-7.67,3.45-11.18,3.45-6.69,0-11.88-5-11.88-11.23s4.55-11.39,11.77-11.39a26.52,26.52,0,0,1,11,2.53V15.4A54.73,54.73,0,0,0,122.05,13.39Z"/><path class="cls-1" d="M140.78,49.93h27.56v-6H152.1V35h14.74V29H152.1v-8.8h16.22V14.09H140.78Z"/><path class="cls-35" d="M378.13,50.17l-5.37-10.08h-3.64V50.17h-5.23V23.53H373c5.47,0,9.82,1.95,9.82,8.07,0,4-2,6.48-5,7.66L384,50.17Zm-9-14.29h3.39c3.36,0,5.2-1.44,5.2-4.28s-1.84-3.86-5.2-3.86h-3.39Z"/><path class="cls-35" d="M387.66,23.53h16V28H392.89v6.16h9.19v4.46h-9.19v7.13H404.1v4.46H387.66Z"/><path class="cls-35" d="M406.94,37c0-8.78,5.55-13.93,12.16-13.93a10.59,10.59,0,0,1,7.67,3.42L424,29.83a6.72,6.72,0,0,0-4.81-2.23c-4,0-6.92,3.46-6.92,9.18s2.68,9.29,6.82,9.29a7.21,7.21,0,0,0,5.4-2.63l2.76,3.31a10.5,10.5,0,0,1-8.34,3.92C412.31,50.67,406.94,45.85,406.94,37Z"/><path class="cls-35" d="M445.2,50.17l-5.37-10.08h-3.64V50.17H431V23.53h9.12c5.47,0,9.82,1.95,9.82,8.07,0,4-2,6.48-5,7.66L451,50.17Zm-9-14.29h3.39c3.36,0,5.2-1.44,5.2-4.28s-1.84-3.86-5.2-3.86h-3.39Z"/><path class="cls-35" d="M454.28,38.18V23.53h5.23V38.65c0,5.54,1.87,7.42,4.95,7.42s5.09-1.88,5.09-7.42V23.53h5V38.18c0,8.86-3.72,12.49-10.11,12.49S454.28,47,454.28,38.18Z"/><path class="cls-35" d="M480.35,23.53h5.23V50.17h-5.23Z"/><path class="cls-35" d="M496.6,28h-7.35V23.53h20V28h-7.43V50.17H496.6Z"/><path class="cls-35" d="M519.82,46.79l3.06-3.68a10.42,10.42,0,0,0,6.76,3c2.78,0,4.25-1.19,4.25-3.06s-1.62-2.59-4-3.6l-3.57-1.51c-2.7-1.12-5.4-3.28-5.4-7.17,0-4.35,3.82-7.7,9.22-7.7a11.81,11.81,0,0,1,8.35,3.42l-2.7,3.35a8.48,8.48,0,0,0-5.65-2.2c-2.34,0-3.85,1-3.85,2.81s1.9,2.59,4.17,3.49L534,35.38c3.24,1.33,5.37,3.38,5.37,7.23,0,4.36-3.64,8.06-9.79,8.06A14.19,14.19,0,0,1,519.82,46.79Z"/><path class="cls-35" d="M543.62,23.53h5.32V50.17h-5.32Z"/><path class="cls-35" d="M560.17,28h-7.49V23.53h20.37V28h-7.56V50.17h-5.32Z"/><path class="cls-35" d="M576.82,23.53h16.34V28h-11v6.16h9.36v4.46h-9.36v7.13h11.41v4.46H576.82Z"/></svg>