<svg id="レイヤー_2" data-name="レイヤー 2" xmlns="http://www.w3.org/2000/svg" viewBox="0 0 652.053 555.785"><defs><style>.cls-1{fill:#c81428;}.cls-2{fill:#fdfdfd;}.cls-3{fill:#fff;}.cls-4,.cls-5{fill:none;stroke-miterlimit:10;stroke-width:2px;}.cls-4{stroke:#000;}.cls-5{stroke:#231815;}</style></defs><title>TOP</title><polygon class="cls-1" points="652.053 354.891 411.554 423.551 411.554 310.551 652.053 241.891 652.053 354.891"/><polygon points="632.907 337.588 0.285 530.417 0.285 213.06 632.907 20.231 632.907 337.588"/><path class="cls-2" d="M307.486,238.1l-4,10.431a60.259,60.259,0,0,1-28.515-10.648l3.973,13.059c2.475,8.135.164,11.529-8.044,14.026-2.09.636-4.575,1.31-6.463,1.8l-5.019-8.991c1.836-.4,4.322-1.071,6.337-1.684,2.612-.795,3.222-1.469,2.608-3.484l-11.125-36.567-28.731,8.742-2.656-8.731,28.731-8.742-3.838-12.612,10.15-3.088,3.836,12.612,13.657-4.155a50.8,50.8,0,0,0-10.807-4.7l4.709-7.3a52.2,52.2,0,0,1,13.139,5.134l-4.653,6.145,12.761-3.883,2.657,8.731-28.806,8.765,2.816,9.253C279.389,233.116,293.275,238.023,307.486,238.1ZM256.145,233.1l-7.638,7.053c-2.929-4-7.173-7.765-12.529-11.435l6.467-6.615A56.548,56.548,0,0,1,256.145,233.1Zm8.763,11.113c-5.614,7.007-14,16.977-19,22.5l-7.611-7.061c5.39-5.064,15.406-15.286,21.811-22.372Zm12.36-16.724a105.988,105.988,0,0,0,4.55-17.2l10.33,1.26a145.645,145.645,0,0,1-6.088,17.506Z" transform="translate(0 0)"/><path class="cls-2" d="M373.824,231.046c-1.817-2.22-4.023-4.647-6.5-7.155-15.915,7.451-33.987,15.314-47.04,20.917l-5.33-10.283,7.229-2.77a427.563,427.563,0,0,0,.481-54.692l11.959-.622c.35,16.69-.025,33.681-1.168,50.824,8.63-3.522,17.767-7.525,25.732-11.09a114.631,114.631,0,0,0-13.129-10.192l7.583-7.77a218.207,218.207,0,0,1,28.77,24.349Z" transform="translate(0 0)"/><path class="cls-2" d="M393.5,199.783l-6.977-18.912-5.813-19.1,11.493-3.5,5.812,19.1,4.739,19.594Zm12.537,3.687,3.678,12.09L398.073,219.1l-3.678-12.09Z" transform="translate(0 0)"/><path class="cls-2" d="M247.82,357.845l-8.812,7.866a216.052,216.052,0,0,0-23.4-3.25l6.816-7.007-27.4,8.337,10.366,1.362a90.361,90.361,0,0,1-17.868,16.307l-11.58-2.33a81.515,81.515,0,0,0,18.241-15.083L183.16,367.4l-9.78-32.146-2.486,3.1-8.745-4.281c7.354-8.258,13.016-18.51,14.727-27.727l11.071-2.365-.609,2.945,15.69-4.774,7.218,1.734a101.782,101.782,0,0,1-4.533,10.662l16.455-5.007,12.808,42.1-11.174,3.4C232.617,355.7,240.413,356.587,247.82,357.845Zm-63.481-41.814c-.758,1.9-1.647,3.93-2.582,5.8l12.169-3.7a59.958,59.958,0,0,0,2.353-5.734Zm29.866,4.712-31.381,9.548,1.234,4.056,31.381-9.548Zm3.33,10.944-31.381,9.548,1.234,4.057,31.381-9.548Zm-26.793,24.626,31.38-9.548-1.257-4.133-31.381,9.548Z" transform="translate(0 0)"/><path class="cls-2" d="M255.191,321.32c3.16,10.386,7.592,19.662,12.9,26.256l-9.224,6.186c-5.345-6.985-9.847-17.285-13.253-28.481a174.338,174.338,0,0,1-6.637-31.864l10.636-1.546A129.928,129.928,0,0,0,255.191,321.32Zm47.7-19.663-9.8,2.98c5.6,18.416,6.271,30.929-2.508,43.338l-10.46-4.222c8.139-10.283,7.788-20.96,3.171-36.135l-21.067,6.41-2.847-9.355,20.773-6.32c-1.819-4.92-3.993-10.214-6.455-15.661l10.575-3.862c2.28,5.906,4.13,11.459,5.825,16.5l9.944-3.025Z" transform="translate(0 0)"/><path class="cls-2" d="M348.569,268.443l18.563-5.648,2.757,9.061L351.326,277.5,356.01,292.9a18.088,18.088,0,0,1,1.86,4.262c4.371,14.365,3.252,26.294-17.073,37.79l-6.779-8c9.746-4.736,13.852-8.963,14.932-13.879a22.692,22.692,0,0,1-5.272,2.248c-8.913,2.712-15.994-1.251-18.571-9.721-2.6-8.545,1.33-16.26,10.612-19.083a21.652,21.652,0,0,1,6.847-1.037c-.493-1.621-1.06-3.22-1.553-4.84l-31.969,9.727-2.757-9.061,31.749-9.659-2.8-8.4,10.755-3.272Zm-6.053,38.3a6.24,6.24,0,0,0,4.2-7.878l-.336-1.1c-1.852-3.7-4.545-4.091-7.859-3.082a6.364,6.364,0,0,0,3.992,12.064Zm14.073-41.3a44.342,44.342,0,0,0-8.484-6.192l3.78-4.771a57.862,57.862,0,0,1,8.631,6.146ZM371,256.467l-4.045,4.692a38.553,38.553,0,0,0-8.432-6.288l3.9-4.647A47.99,47.99,0,0,1,371,256.467Z" transform="translate(0 0)"/><path class="cls-2" d="M409.661,304.8,406,301.6a41.467,41.467,0,0,1-6.075,15.138l-8.088-4.877a34.08,34.08,0,0,0,6.289-15.774l-3.085-1.834.088,1.36-8.819-2.454c-.353-6.252-1.248-15.356-2.36-24.639l-4.7,1.431-2.475-8.134,6.044-1.84-2.026-13.9,8.546-2.193,1.839,13.546,5.149-1.566,6.054-1.272c3.432,13.958,5.108,26.168,4.76,36.546a70.565,70.565,0,0,1,7.485,5.306ZM398.6,286.4a122.679,122.679,0,0,0-2.937-21.446L392.228,266c.75,6.214,1.447,12.524,1.984,18.312Zm63.722,1.485-3.6,9.084a60.768,60.768,0,0,1-12.938-7.152l3.565,11.716-8.881,2.7L433.433,281.1l-3.508,1.068,7.039,23.133-8.732,2.657-3.224-10.6a50.857,50.857,0,0,1-5.945,12.082l-7.731-5.311a42.079,42.079,0,0,0,9.638-19.24l-7.686,2.339-2.135-7.015,7.911-2.407-.931-3.06-9.627,2.929-2.044-6.716,9.627-2.929-.908-2.985-7.91,2.407-2.112-6.941,7.91-2.406-.839-2.761-8.06,2.452-2.089-6.866,6.567-2a31.622,31.622,0,0,0-5.687-6.1l6.882-5.519a34.4,34.4,0,0,1,7.264,8.064l-1.967,1.576,9.254-2.815a77.953,77.953,0,0,0,1.425-11.93l10.029.536c-.386,2.482-1.032,5.451-1.753,8.442l11.642-3.542,2.089,6.866-14.478,4.405.841,2.76,11.791-3.587,3.02,9.925,2.686-.817,2.043,6.716-2.686.818L454.1,274.81l-11.343,3.451A48.939,48.939,0,0,0,462.321,287.883ZM421.8,255.45l3.507-1.067-.84-2.761-3.507,1.068Zm3.019,9.926,3.508-1.068-.908-2.985-3.508,1.068Zm6.482,8.708-.931-3.059-3.507,1.067.931,3.06Zm5-15.462.909,2.985,3.582-1.09-.909-2.985Zm6.534,8.611-3.582,1.09.931,3.059,3.582-1.089Z" transform="translate(0 0)"/><path class="cls-2" d="M489.357,259.248l9.71,1.231c1.034,13.448-1.91,20.7-8.024,22.562-8.692,2.644-22.19-5.482-29.676-30.085-1.547-5.083-3.1-10.725-4.373-17.019l10.972-2.292a128.717,128.717,0,0,0,3.573,15.975c4.706,15.469,11.588,23.274,15.566,22.064C489.314,271.012,490.173,266.163,489.357,259.248Zm40.581-2.849-10.832,4.341c-5.251-16.993-11.146-25.259-23.844-32.342l6.989-8.243C517.056,228.609,524.075,239.511,529.938,256.4Z" transform="translate(0 0)"/><path class="cls-3" d="M187.359,425.312l2.517,8.32-1.856.562-3.015-9.965-1.68,5.867-.849-2.805,3.049-11.192-5.9,1.783-.592-1.959,2.991-.9L181.3,412.6l1.878-.569.732,2.419,2.926-.885.614,2.031-1.463,5.169.673,2.225,4.1,1.98.731,2.418Zm5.7,7.039-.644-2.129,4.673-1.413-3.249-10.739-4.1,1.242-.636-2.1,4.1-1.242-1.932-6.385,1.9-.575,1.932,6.385,4.148-1.255.637,2.1-4.148,1.256,3.249,10.738,4.672-1.414.644,2.128Z" transform="translate(0 0)"/><path class="cls-3" d="M212.036,405.2l-8.272,8.971-.681-2.249,7.669-8.366,1.442-.436,11.02,2.711.681,2.249Zm-.335,14.331-1.012,5.322,13.6-4.116-2.415-3.334,2.118-.641,3.692,5.113-18.712,5.662-.6-1.984,1.033-5.328-3.187.964-.578-1.911,19.542-5.912.577,1.911Zm-5.2-4.182-.563-1.863,15.851-4.8.564,1.862Z" transform="translate(0 0)"/><path class="cls-3" d="M241.7,417.011l-.484-1.6,2.167-.655-3.433-11.346-10.407,3.149,3.433,11.345,4.186-1.266-3.1-10.255,1.4-.422,3.587,11.856-7.075,2.14-4.407-14.565,13.4-4.052,4.406,14.564Z" transform="translate(0 0)"/><path class="cls-3" d="M243.728,397.381l-.571-1.887,2.925-.885-.446-1.476,1.637-.5.447,1.475,2.947-.891.571,1.887ZM245.5,401.2l-.519-1.716,6.375-1.93.52,1.717Zm1.215,4.016-.512-1.694,6.376-1.929.512,1.693Zm3.022,9.988-2.341-7.739,6.375-1.929,2.342,7.739Zm3.062-7.526-3.363,1.017,1.325,4.378,3.362-1.018Zm9.983-4.42,5.372,3.813.739,2.443-6.975-4.938,2.012,6.651-1.834.555-2.012-6.651-3.068,7.977-.739-2.443,2.379-6.158-3.887,1.176-.556-1.839,5.022-1.519-.688-2.274-4.476,1.355-2.883-9.529,10.786-3.264,2.883,9.529-4.476,1.355.688,2.273,5.044-1.526.556,1.839Zm-6.337-11.177-3.078.932.717,2.37,3.079-.932Zm1.171,3.87-3.078.932.724,2.394,3.079-.931Zm3.174-5.184-3.078.931.717,2.371,3.079-.932Zm1.171,3.869-3.078.932.724,2.395,3.079-.932Z" transform="translate(0 0)"/><path class="cls-3" d="M269.466,395.269l-2.474-8.175,8.3-2.51,2.473,8.175Zm4.574-8.749-4.935,1.493.593,1.959,4.935-1.493Zm3.62,20.236-3.811-1.884.536,3.192-1.528.462-1.491-8.631,1.507-.455.609,3.352,2.732,1.391-1.975-6.53-4.28,1.295-.549-1.814,9.389-2.841.549,1.815-3.494,1.057.842,2.781,2.97-.9.49,1.62-2.97.9.886,2.927,13.668-4.135.593,1.959Zm-2.625-16.947L270.1,391.3l.607,2.007,4.935-1.492Zm7-5.549.031,2,4.389-1.328,3.608,11.924-1.026.31,2.348,2.246-1.7.516-2.283-2.266-3.406,1.031-.687,3.164-1.7.515.731-3.177-1.048.316-3.608-11.923,2.751-.833-.054-1.99-3.8,1.15-.476-1.572,9.891-2.993.476,1.573Zm3.12,2.594-5.306,1.605.637,2.105,5.306-1.606Zm1.061,3.507-5.306,1.605.637,2.1,5.306-1.605Zm1.061,3.506-5.306,1.606.63,2.08,5.305-1.605Z" transform="translate(0 0)"/><path class="cls-3" d="M296.837,400.488,292.2,385.16l1.445-.437,4.638,15.328Zm9.207-11.737-1.447-4.782-7.65,2.314-.484-1.6,9.111-2.757,1.931,6.383Zm-5.18,10.36-2.129-7.037,1.461-.442,1.651,5.455,7.764-2.35.479,1.582Z" transform="translate(0 0)"/><path class="cls-3" d="M313.789,395.614,307.5,374.838l1.988-.6,1.141,3.774,15.5-4.69.665,2.2-15.5,4.69,3.812,12.6,16-4.843.666,2.2ZM322.7,373.3l-1.572.476.619-4.332,1.594-.482Zm2.8-.845-1.573.475.62-4.332,1.594-.482Z" transform="translate(0 0)"/><path class="cls-3" d="M329.768,372.194l-.652-2.153,10.655-3.224.652,2.153Zm2.173,7.183-.644-2.128,10.655-3.224.644,2.128Zm2.767,9.934-.651-2.153,15.917-4.816-4.5-14.874,1.965-.594,5.152,17.027Zm9.666-22.566-1.573.476.642-4.339,1.55-.469Zm2.794-.845-1.572.475.642-4.339,1.572-.475Z" transform="translate(0 0)"/><path class="cls-3" d="M363.356,370.347l2.913,9.626-2.009.608-2.4-7.933-4.889,7.551-2.227.674-.681-2.25,1.638-.5L366.5,361.583l-.044-.146-15.764,4.77-.651-2.152,8.471-2.563-.607-2.007,1.987-.6.607,2.008,7.4-2.239.98,3.24ZM365,372.013l-.695-2.3,8.952,1.859.7,2.322Z" transform="translate(0 0)"/><path class="cls-3" d="M394.124,371.624l-8.807-7.526-4.082,11.162-4.367,1.321-.659-2.176,3.45-1.044,6.8-18.8-.036-.121-14.346,4.34-.651-2.153,16.659-5.04.8,2.636-2.784,7.733,10.491,8.917Z" transform="translate(0 0)"/><path class="cls-3" d="M398.278,355.486l3.444,11.383,8.832-2.672.484,1.6-10.326,3.124-3.927-12.983-3.185.964-.5-1.637,14.38-4.351.5,1.637Zm8.116,1.713-1.182.357.433-3.425,1.182-.357Zm2.1-.636-1.182.358.433-3.426,1.182-.357Z" transform="translate(0 0)"/><path class="cls-3" d="M417.184,356.305l2.378,7.86-1.812.549-2.218-7.329-2.051,1.334-.607-2.007,2.044-1.358-2.137-7.062-2.249.68-.585-1.935,2.249-.68-1-3.314,1.812-.548,1,3.313,2.031-.614.585,1.935-2.031.614,1.969,6.506,1.84-1.242.629,2.079Zm8.033,6.149-1.834.555-.014-9.419-.088-.291-2.689,3.163-.666-2.2,2.689-3.163-1.244-4.112-3.94-.972-.688-2.273,3.955,1.02-1.273-4.208,1.768-.535,3.944,13.036Zm4.483-1.725L423.246,339.4l1.768-.536,1.259,4.161,2.929-3.315.674,2.225-2.937,3.291,1.288,4.257,4.319,1.279.659,2.178-4.312-1.257,1.939,6.41,3.6-1.09.636,2.1Z" transform="translate(0 0)"/><path class="cls-3" d="M450.309,338.847l4.219,13.947-10.813,3.272-.358-1.181-4.846,1.466L435.684,347l4.845-1.466-1.1-3.647-5,1.511-.552-1.824,4.9-1.483-.5-1.658,1.74-.527.5,1.659,4.939-1.5.552,1.824-4.845,1.466L444.9,353.7l7.428-2.247-4.232-13.989,2.806-.849.57,1.886Zm-9.209,8.306-3.462,1.047,1.768,5.844L442.868,353Z" transform="translate(0 0)"/><line class="cls-4" x1="292.912" y1="98.941" x2="622.9" y2="0.959"/><line class="cls-5" x1="0.285" y1="554.827" x2="330.273" y2="456.844"/></svg>