<svg xmlns="http://www.w3.org/2000/svg" viewBox="0 0 652 556"><title>loding</title><g id="レイヤー_2" data-name="レイヤー 2"><polygon points="652 355 412 424 412 311 652 242 652 355" style="fill:#c81428"/><polygon points="633 338 0 530 0 213 633 20 633 338"/><text transform="translate(99 310) rotate(-17)" style="font-size:70px;fill:#fdfdfd;font-family:AxisProN-Bold-83pv-RKSJ-H, AXIS ProN"><tspan xml:space="preserve" style="letter-spacing:0.24429757254464285em">		</tspan><tspan x="72" y="0"> </tspan><tspan x="91" y="0" style="letter-spacing:-0.019988141741071427em">負け</tspan><tspan x="228" y="0" style="letter-spacing:-0.003006417410714286em">ず</tspan><tspan x="298" y="0" style="letter-spacing:-0.009995814732142857em">嫌</tspan><tspan x="367" y="0" style="letter-spacing:0.009995814732142857em">い</tspan><tspan style="letter-spacing:-0.075em"><tspan x="0" y="78"> </tspan><tspan x="14" y="78" style="letter-spacing:-0.03600027901785714em">か</tspan><tspan x="81" y="78" style="letter-spacing:-0.08839983258928572em">か</tspan><tspan x="145" y="78" style="letter-spacing:-0.21399972098214284em">っ</tspan><tspan x="200" y="78" style="letter-spacing:-0.14869907924107142em">て</tspan><tspan x="260" y="78" style="letter-spacing:-0.04959891183035714em">こ</tspan><tspan x="326" y="78" style="letter-spacing:-0.025em">い</tspan></tspan></text><text transform="translate(183 434) rotate(-17) scale(0.9 1)" style="font-size:25.26568031311035px;fill:#fff;font-family:VDL-LineG-Regular-83pv-RKSJ-H, VDL-LineG;letter-spacing:0.07500344604220072em">社会<tspan x="54" y="0" style="font-size:19px;letter-spacing:0.07500421767495512em">の</tspan><tspan x="75" y="0" style="letter-spacing:0.07499809362330097em">課題</tspan><tspan x="129" y="0" style="font-size:19px;letter-spacing:0.00499648517819496em">に</tspan><tspan x="148" y="0" style="letter-spacing:-0.024995796261833823em">ビジネス</tspan><tspan x="247" y="0" style="font-size:19px;letter-spacing:0.07499710017470126em">で</tspan><tspan x="267" y="0">挑</tspan><tspan x="294" y="0" style="font-size:21.65275001525879px;letter-spacing:0.07499610519539181em">む</tspan></text><line x1="293" y1="99" x2="623" y2="1" style="fill:none;stroke:#000;stroke-miterlimit:10;stroke-width:2px"/><line y1="555" x2="330" y2="457" style="fill:none;stroke:#231815;stroke-miterlimit:10;stroke-width:2px"/></g></svg>