<svg id="レイヤー_2" data-name="レイヤー 2" xmlns="http://www.w3.org/2000/svg" viewBox="0 0 469 37"><title>fce-logo</title><polygon points="0 1 22 1 22 6 8 6 8 16 21 16 21 21 8 21 8 37 0 37 0 1" style="fill:#c71528"/><path d="M0,0Z" style="fill:#c71528"/><polygon points="61 1 84 1 84 6 69 6 69 16 83 16 83 20 69 20 69 32 84 32 84 37 61 37 61 1" style="fill:#c71528"/><path d="M0,0ZM0,0Z" style="fill:#c71528"/><path d="M0,0H0M0,0H0" style="fill:#c71528"/><path d="M0,0Z" style="fill:#c71528"/><path d="M0,0ZM0,0Z" style="fill:#c71528"/><path d="M0,0Z" style="fill:#c71528"/><path d="M0,0ZM0,0Z" style="fill:#bc1b29"/><path d="M0,0Z" style="fill:#bc1b29"/><path d="M0,0Z" style="fill:#bc1b29"/><path d="M0,0ZM0,0Z" style="fill:#bc1b29"/><path d="M0,0Z" style="fill:#bc1b29"/><path d="M0,0Z" style="fill:#bc1b29"/><path d="M0,0Z" style="fill:#bc1b29"/><path d="M0,0Z" style="fill:#bc1b29"/><path d="M0,0Z" style="fill:#bc1b29"/><path d="M0,0Z" style="fill:#bc1b29"/><path d="M0,0Z" style="fill:#bc1b29"/></svg>