<svg id="レイヤー_1" data-name="レイヤー 1" xmlns="http://www.w3.org/2000/svg" viewBox="0 0 185.33 63.65"><defs><style>.cls-1{
    <!-- fill:#fff; -->
    stroke: #fff;
    }</style></defs><path class="cls-1" d="M34.89,16.21a.25.25,0,0,0,.44.12l1-.84a.93.93,0,0,0,.27-.69l-.21-2.34c0-.23-.15-.26-.29-.08l-1.41,1.88a.93.93,0,0,0-.12.73Z" transform="translate(0)"/><path class="cls-1" d="M43.57,30.65l3.51,3.13c.17.15.26.1.19-.12l-1.89-5.92a7.23,7.23,0,0,1-.21-.8l-1.29-6c0-.22-.14-.23-.22,0l-1.49,4.45a.55.55,0,0,1-.55.36L37,25.28l-.44-4.61a.55.55,0,0,1,.35-.55l4.46-1.47c.22-.07.21-.17,0-.22l-6.06-1.32c-.23-.05-.59-.15-.81-.22L28.66,15c-.21-.07-.27,0-.12.18l3.12,3.52a.56.56,0,0,1,0,.65L29,23.12,24.77,21.2a.55.55,0,0,1-.29-.58l.95-4.6c.05-.23,0-.27-.2-.1l-4.18,4.59c-.15.17-.42.43-.59.59l-4.55,4.11c-.17.15-.13.24.1.19l4.6-.93a.54.54,0,0,1,.58.3L23.1,29l-3.76,2.69a.56.56,0,0,1-.66,0l-3.5-3.12c-.17-.15-.26-.1-.19.12l1.89,5.91c.07.22.16.59.21.81l1.28,6c.05.22.15.23.22,0l1.5-4.45a.55.55,0,0,1,.54-.36l4.62.46.44,4.61a.54.54,0,0,1-.36.54l-4.45,1.48c-.22.07-.22.17,0,.22L27,45.19c.23.05.59.15.81.22l5.83,1.89c.22.07.28,0,.12-.19L30.6,43.59a.56.56,0,0,1,0-.65l2.71-3.76,4.2,1.92a.54.54,0,0,1,.3.58l-1,4.6c0,.22,0,.27.19.1l4.18-4.59c.16-.17.42-.44.59-.59l4.56-4.11c.17-.15.12-.24-.1-.2l-4.61.94a.56.56,0,0,1-.58-.3L39.15,33.3l3.77-2.68A.56.56,0,0,1,43.57,30.65ZM40.81,28.9,39,33.14s0,0,0,0h0c0,.1,0,.16,0,.19L38.38,38a.55.55,0,0,1-.46.46l-4.61.51h-.06a.25.25,0,0,0-.18.07l-4.21,1.83a.56.56,0,0,1-.63-.17l-2.74-3.73a.08.08,0,0,0,0,0l0,0c-.06-.08-.11-.12-.15-.11L21.61,34a.53.53,0,0,1-.16-.62l1.86-4.24a.17.17,0,0,1,0-.05v0q.06-.14,0-.18l.52-4.56a.55.55,0,0,1,.46-.46l4.6-.51H29a.25.25,0,0,0,.18-.07l4.21-1.83a.54.54,0,0,1,.62.17l2.75,3.73,0,0,0,0c.06.08.11.11.15.11l3.68,2.73A.55.55,0,0,1,40.81,28.9Z" transform="translate(0)"/><path class="cls-1" d="M48,27.67l1.92-1.35c.19-.13.15-.26-.08-.29l-2.33-.28a.91.91,0,0,0-.69.25l-.87.94a.25.25,0,0,0,.11.44l1.2.4A1,1,0,0,0,48,27.67Z" transform="translate(0)"/><path class="cls-1" d="M43.43,42.16l-1.24-.28c-.23-.05-.37.09-.33.32l.26,1.24a.92.92,0,0,0,.46.58l2.13,1c.2.09.3,0,.21-.21L44,42.64A.94.94,0,0,0,43.43,42.16Z" transform="translate(0)"/><path class="cls-1" d="M27.36,46.09a.24.24,0,0,0-.43-.12l-.95.84a.93.93,0,0,0-.27.69l.21,2.34c0,.22.15.26.28.08L27.61,48a.9.9,0,0,0,.13-.73Z" transform="translate(0)"/><path class="cls-1" d="M12.41,36.27l2.34.28a.9.9,0,0,0,.69-.26l.87-.93a.25.25,0,0,0-.12-.44l-1.2-.4a.94.94,0,0,0-.73.11L12.34,36C12.15,36.11,12.18,36.24,12.41,36.27Z" transform="translate(0)"/><path class="cls-1" d="M18.83,20.14l1.24.28a.25.25,0,0,0,.32-.32l-.25-1.24a.89.89,0,0,0-.46-.58l-2.13-1c-.21-.09-.3,0-.21.21l.92,2.16A.94.94,0,0,0,18.83,20.14Z" transform="translate(0)"/><path class="cls-1" d="M24.53,4.83l3.92,2.58a.56.56,0,0,1,.2.62L27,12.43c-.08.22,0,.28.18.13l3.67-2.93a.53.53,0,0,1,.65,0l3.67,2.92c.18.14.27.08.18-.13L33.71,8a.57.57,0,0,1,.2-.63l3.91-2.59c.2-.12.17-.22-.07-.21l-6.19.31a5.89,5.89,0,0,1-.84,0L24.6,4.62C24.37,4.61,24.33,4.71,24.53,4.83Z" transform="translate(0)"/><path class="cls-1" d="M30.92,4.15a.25.25,0,0,0,.46,0l.69-1.06a.91.91,0,0,0,.08-.74L31.34.16c-.08-.21-.22-.21-.3,0l-.87,2.18a1,1,0,0,0,.07.74Z" transform="translate(0)"/><path class="cls-1" d="M37.75,29l-6.19.31a7.85,7.85,0,0,1-.84,0L24.6,29c-.23,0-.27.09-.07.21l3.92,2.58a.56.56,0,0,1,.2.62L27,36.8c-.08.22,0,.28.18.13L30.86,34a.56.56,0,0,1,.65,0l3.67,2.92c.18.14.27.09.18-.13L33.71,32.4a.55.55,0,0,1,.2-.62l3.91-2.6C38,29.06,38,29,37.75,29Z" transform="translate(0)"/><path class="cls-1" d="M30.92,28.53a.26.26,0,0,0,.46,0l.69-1.06a.91.91,0,0,0,.08-.74l-.81-2.2c-.08-.21-.22-.21-.3,0l-.87,2.18a1,1,0,0,0,.07.74Z" transform="translate(0)"/><path class="cls-1" d="M40.66,9.26a.54.54,0,0,1-.14.63l-3.62,3c-.18.15-.14.24.09.2l4.64-.7a.54.54,0,0,1,.57.32l1.72,4.37c.09.22.18.21.22,0l.76-4.63a.55.55,0,0,1,.49-.44l4.69-.29c.23,0,.25-.11,0-.22L44.6,8.65c-.21-.11-.53-.3-.73-.42L38.71,4.91c-.19-.12-.26-.06-.16.15Z" transform="translate(0)"/><path class="cls-1" d="M44.82,7.9,46,7.33a.93.93,0,0,0,.44-.6l.39-2.31c0-.22-.07-.29-.25-.15L44.68,5.73a.9.9,0,0,0-.31.67l.06,1.27A.25.25,0,0,0,44.82,7.9Z" transform="translate(0)"/><path class="cls-1" d="M49.87,17.44l-4.63.78c-.23,0-.24.13,0,.22l4.37,1.71a.55.55,0,0,1,.33.56l-.69,4.65c0,.22.05.27.2.09l3-3.63a.54.54,0,0,1,.63-.14l4.21,2.09c.2.11.27,0,.14-.16L54,18.4a7.63,7.63,0,0,1-.42-.73L50.8,12.22c-.11-.2-.2-.18-.22,0L50.31,17A.54.54,0,0,1,49.87,17.44Z" transform="translate(0)"/><path class="cls-1" d="M54.59,17.86l1.26.08a1,1,0,0,0,.69-.3L58,15.83c.15-.17.08-.29-.15-.26l-2.32.34a.93.93,0,0,0-.61.43l-.58,1.13A.24.24,0,0,0,54.59,17.86Z" transform="translate(0)"/><path class="cls-1" d="M49.68,35.18c-.15.18-.09.27.13.18l4.39-1.65a.55.55,0,0,1,.62.2l2.6,3.91c.12.2.22.17.21-.06l-.32-6.2c0-.23,0-.61,0-.84l.3-6.12c0-.23-.09-.26-.21-.07l-2.59,3.92a.54.54,0,0,1-.61.2L49.79,27c-.21-.08-.27,0-.12.18l2.93,3.67a.56.56,0,0,1,0,.65Z" transform="translate(0)"/><path class="cls-1" d="M62.07,31l-2.18-.87a1,1,0,0,0-.74.07l-1.08.68a.25.25,0,0,0,0,.45l1.06.7a.91.91,0,0,0,.74.08l2.19-.81C62.28,31.26,62.28,31.12,62.07,31Z" transform="translate(0)"/><path class="cls-1" d="M57.17,38.55,53,40.66a.56.56,0,0,1-.64-.14l-3-3.62c-.15-.18-.24-.14-.21.09l.71,4.64a.55.55,0,0,1-.33.57l-4.36,1.72c-.22.09-.21.19,0,.22l4.63.76a.55.55,0,0,1,.44.49l.29,4.69c0,.23.11.25.21,0l2.83-5.52c.11-.21.29-.53.42-.73l3.32-5.15C57.44,38.52,57.37,38.45,57.17,38.55Z" transform="translate(0)"/><path class="cls-1" d="M56.5,44.68a.9.9,0,0,0-.67-.31l-1.27.06a.25.25,0,0,0-.23.39L54.9,46a.93.93,0,0,0,.6.44l2.31.39c.22,0,.29-.07.15-.25Z" transform="translate(0)"/><path class="cls-1" d="M50,50.58l-4.69-.27a.53.53,0,0,1-.48-.44L44,45.24c0-.23-.14-.24-.22,0l-1.71,4.37a.55.55,0,0,1-.56.33l-4.65-.69c-.23,0-.27.05-.09.2l3.63,3a.54.54,0,0,1,.14.63l-2.1,4.21c-.1.2,0,.27.17.14L43.83,54a7.49,7.49,0,0,1,.72-.42L50,50.8C50.21,50.69,50.19,50.6,50,50.58Z" transform="translate(0)"/><path class="cls-1" d="M46.32,55.56a.92.92,0,0,0-.43-.6l-1.13-.59a.24.24,0,0,0-.39.22l-.08,1.26a1,1,0,0,0,.3.69L46.39,58c.18.15.3.08.27-.15Z" transform="translate(0)"/><path class="cls-1" d="M37.7,57.4l-3.92-2.58a.56.56,0,0,1-.21-.62l1.65-4.4c.08-.22,0-.28-.18-.13L31.37,52.6a.56.56,0,0,1-.65,0L27,49.68c-.18-.15-.26-.09-.18.13l1.66,4.39a.55.55,0,0,1-.2.62l-3.92,2.6c-.19.12-.16.22.07.21l6.2-.32c.23,0,.61,0,.84,0l6.12.3C37.86,57.62,37.89,57.52,37.7,57.4Z" transform="translate(0)"/><path class="cls-1" d="M31.3,58.07a.25.25,0,0,0-.45,0l-.69,1.06a.91.91,0,0,0-.09.74l.82,2.19c.08.22.21.22.3,0l.87-2.18a1,1,0,0,0-.07-.74Z" transform="translate(0)"/><path class="cls-1" d="M21.57,53a.57.57,0,0,1,.13-.64l3.63-3c.18-.15.13-.24-.09-.21l-4.65.71a.55.55,0,0,1-.56-.33l-1.72-4.36c-.09-.22-.19-.21-.23,0l-.76,4.63a.53.53,0,0,1-.48.44l-4.69.29c-.23,0-.25.11,0,.21l5.52,2.83c.21.11.53.3.72.42l5.16,3.32c.2.12.27,0,.17-.15Z" transform="translate(0)"/><path class="cls-1" d="M17.41,54.33l-1.13.57a.93.93,0,0,0-.44.6l-.4,2.31c0,.22.08.29.26.15l1.84-1.46a.9.9,0,0,0,.31-.67l-.05-1.27A.25.25,0,0,0,17.41,54.33Z" transform="translate(0)"/><path class="cls-1" d="M12.35,44.79,17,44c.22,0,.23-.14,0-.22l-4.38-1.71a.54.54,0,0,1-.32-.56L13,36.87c0-.23-.06-.27-.2-.09l-3,3.63a.55.55,0,0,1-.64.14L5,38.45c-.21-.1-.27,0-.15.17L8.2,43.83a7.49,7.49,0,0,1,.42.72L11.43,50c.1.2.2.18.22,0l.27-4.69A.53.53,0,0,1,12.35,44.79Z" transform="translate(0)"/><path class="cls-1" d="M7.64,44.37l-1.27-.08a1,1,0,0,0-.68.3L4.2,46.4c-.15.17-.08.29.14.26l2.33-.34a1,1,0,0,0,.6-.43l.59-1.13A.24.24,0,0,0,7.64,44.37Z" transform="translate(0)"/><path class="cls-1" d="M4.62,37.63c0,.23.08.26.21.07l2.58-3.92A.55.55,0,0,1,8,33.57l4.4,1.65c.22.08.27,0,.13-.18L9.63,31.37a.53.53,0,0,1,0-.65L12.55,27c.14-.18.08-.26-.13-.18L8,28.52a.57.57,0,0,1-.63-.2L4.81,24.4c-.13-.19-.22-.16-.21.07l.31,6.2a7.85,7.85,0,0,1,0,.84Z" transform="translate(0)"/><path class="cls-1" d="M4.16,30.85,3.1,30.16a.91.91,0,0,0-.74-.09l-2.2.82c-.21.08-.21.21,0,.3l2.18.87A1,1,0,0,0,3.08,32l1.07-.69A.25.25,0,0,0,4.16,30.85Z" transform="translate(0)"/><path class="cls-1" d="M5.06,23.68l4.2-2.11a.55.55,0,0,1,.63.13l3,3.63c.15.17.24.13.2-.09l-.7-4.65A.54.54,0,0,1,12.7,20l4.37-1.72c.22-.09.21-.19,0-.22l-4.63-.77a.53.53,0,0,1-.44-.48l-.29-4.69c0-.23-.11-.25-.21,0L8.64,17.63c-.1.21-.29.53-.41.72L4.91,23.51C4.79,23.71,4.85,23.78,5.06,23.68Z" transform="translate(0)"/><path class="cls-1" d="M5.73,17.54a.9.9,0,0,0,.67.31l1.27-.05a.25.25,0,0,0,.23-.39l-.57-1.13a.87.87,0,0,0-.6-.44l-2.31-.4c-.22,0-.29.08-.15.26Z" transform="translate(0)"/><path class="cls-1" d="M12.27,11.65l4.69.27a.54.54,0,0,1,.48.43L18.22,17c0,.22.13.23.22,0l1.71-4.38a.54.54,0,0,1,.56-.32l4.65.69c.23,0,.27-.06.09-.2l-3.63-3a.55.55,0,0,1-.14-.64L23.77,5c.11-.21,0-.27-.16-.15L18.4,8.2c-.2.13-.52.32-.72.42l-5.46,2.81C12,11.53,12,11.63,12.27,11.65Z" transform="translate(0)"/><path class="cls-1" d="M15.91,6.67a.91.91,0,0,0,.43.6l1.13.59a.24.24,0,0,0,.39-.22l.08-1.27a1,1,0,0,0-.3-.68L15.83,4.2c-.17-.15-.29-.08-.26.14Z" transform="translate(0)"/><path class="cls-1" d="M69,48.7H82.47v-18h19.28V23.33H82.47V12.73h20.34V5.41H69Z" transform="translate(0)"/><path class="cls-1" d="M131.6,5.41c-14.79,0-24.73,8.73-24.73,21.72,0,9.84,6.27,21.57,23.95,21.57a35.81,35.81,0,0,0,16.63-3.91V36.11c-5.36,3-9.07,4-13.23,4-7.91,0-14-5.84-14-13.12s5.39-13.31,13.92-13.31c4.13,0,8.53,1.24,13.36,3.32V8.12C142.21,6.88,137,5.41,131.6,5.41Z" transform="translate(0)"/><path class="cls-1" d="M152.86,48.7h32.47V41.39H166.2V30.67h17.37V23.36H166.2V12.73h19.1V5.41H152.86Z" transform="translate(0)"/><path class="cls-1" d="M69,55.66h3.39v.85H70v1.77h2.2v.85H70V62H69Z" transform="translate(0)"/><path class="cls-1" d="M75.82,61.45h0a1.37,1.37,0,0,1-1.23.69c-.71,0-1.19-.33-1.19-1.57V57.23h1v3.43c0,.53.24.71.65.71a.74.74,0,0,0,.78-.8V57.23h1V62h-.9Z" transform="translate(0)"/><path class="cls-1" d="M77.68,57.23h.66V55.86h1v1.37h.78v.71H79.3v2.85c0,.38.1.51.43.51a1.62,1.62,0,0,0,.35,0V62a3.31,3.31,0,0,1-.77.08c-.65,0-1-.18-1-1.16v-3h-.66Z" transform="translate(0)"/><path class="cls-1" d="M83.48,61.45h0a1.36,1.36,0,0,1-1.22.69c-.72,0-1.2-.33-1.2-1.57V57.23h1v3.43c0,.53.24.71.65.71a.75.75,0,0,0,.79-.8V57.23h1V62h-.91Z" transform="translate(0)"/><path class="cls-1" d="M85.68,57.23h1V58h0a1.18,1.18,0,0,1,1.11-.87.63.63,0,0,1,.23,0v1a1.61,1.61,0,0,0-.4-.06c-.44,0-1,.2-1,1.09V62h-1Z" transform="translate(0)"/><path class="cls-1" d="M90.13,57.16c-1,0-1.72,1-1.72,2.52s.72,2.37,1.93,2.37a2.88,2.88,0,0,0,1.24-.29l0-.83a1.6,1.6,0,0,1-1.09.34c-.75,0-1.12-.44-1.12-1.35v0H91.8V59.7C91.8,58,91.22,57.16,90.13,57.16Zm.74,2.06H89.33v0c0-.6.21-1.31.8-1.31.34,0,.74.23.74,1.31Z" transform="translate(0)"/><path class="cls-1" d="M104.72,57.16c-1,0-1.72,1-1.72,2.52s.73,2.37,1.94,2.37a2.92,2.92,0,0,0,1.24-.29l-.05-.83a1.58,1.58,0,0,1-1.08.34c-.75,0-1.12-.44-1.12-1.35v0h2.47V59.7C106.4,58,105.82,57.16,104.72,57.16Zm.75,2.06h-1.54v0c0-.6.21-1.31.79-1.31.34,0,.75.23.75,1.31Z" transform="translate(0)"/><path class="cls-1" d="M116.16,57.16c-1,0-1.72,1-1.72,2.52s.73,2.37,1.94,2.37a2.92,2.92,0,0,0,1.24-.29l-.05-.83a1.58,1.58,0,0,1-1.08.34c-.76,0-1.12-.44-1.12-1.35v0h2.46V59.7C117.83,58,117.26,57.16,116.16,57.16Zm.75,2.06h-1.54v0c0-.6.21-1.31.79-1.31.34,0,.75.23.75,1.31Z" transform="translate(0)"/><path class="cls-1" d="M153.11,57.16c-1,0-1.72,1-1.72,2.52s.72,2.37,1.93,2.37a2.92,2.92,0,0,0,1.24-.29l0-.83a1.6,1.6,0,0,1-1.09.34c-.75,0-1.12-.44-1.12-1.35v0h2.47V59.7C154.78,58,154.2,57.16,153.11,57.16Zm.74,2.06h-1.54v0c0-.6.21-1.31.8-1.31.34,0,.74.23.74,1.31Z" transform="translate(0)"/><path class="cls-1" d="M164.52,57.16c-1,0-1.72,1-1.72,2.52s.72,2.37,1.93,2.37a2.92,2.92,0,0,0,1.24-.29l0-.83a1.6,1.6,0,0,1-1.09.34c-.75,0-1.12-.44-1.12-1.35v0h2.47V59.7C166.19,58,165.61,57.16,164.52,57.16Zm.74,2.06h-1.54v0c0-.6.21-1.31.8-1.31.34,0,.74.23.74,1.31Z" transform="translate(0)"/><path class="cls-1" d="M173,57.16c-1,0-1.72,1-1.72,2.52s.72,2.37,1.94,2.37a3,3,0,0,0,1.24-.29l-.05-.83a1.6,1.6,0,0,1-1.09.34c-.75,0-1.11-.44-1.11-1.35v0h2.46V59.7C174.68,58,174.1,57.16,173,57.16Zm.75,2.06h-1.54v0c0-.6.2-1.31.79-1.31.34,0,.75.23.75,1.31Z" transform="translate(0)"/><path class="cls-1" d="M98,55.46c-1.7,0-2.75,1.26-2.75,3.29S96.36,62,98.08,62a3.44,3.44,0,0,0,1.27-.21l0-.93a2,2,0,0,1-1.11.28c-1.14,0-1.82-.91-1.82-2.43s.68-2.43,1.82-2.43a2.3,2.3,0,0,1,1.11.31l0-.92A3.73,3.73,0,0,0,98,55.46Z" transform="translate(0)"/><path class="cls-1" d="M100.44,57.23h1V58h0a1.18,1.18,0,0,1,1.11-.87.68.68,0,0,1,.23,0v1a1.61,1.61,0,0,0-.4-.06c-.44,0-1,.2-1,1.09V62h-1Z" transform="translate(0)"/><path class="cls-1" d="M109.55,59.19c-1.54,0-2.2.48-2.2,1.61a1.27,1.27,0,0,0,1.24,1.39,2.26,2.26,0,0,0,1.18-.47l.06,0v.07a1,1,0,0,0,0,.33l0,0h.86c0-.21,0-.5,0-.83V59.17c0-1.59-.64-1.92-1.6-1.92a2.62,2.62,0,0,0-1.31.35l0,.85A1.85,1.85,0,0,1,109,58c.52,0,.82.35.82,1v.22Zm-.62,2.28a.7.7,0,0,1-.69-.78c0-.84.72-.95,1.43-.95h.12v.31C109.79,61,109.52,61.47,108.93,61.47Z" transform="translate(0)"/><path class="cls-1" d="M111.44,57.23h.66V55.86h1v1.37h.79v.71h-.79v2.85c0,.38.11.51.44.51a1.69,1.69,0,0,0,.35,0V62a3.47,3.47,0,0,1-.78.08c-.65,0-1-.18-1-1.16v-3h-.66Z" transform="translate(0)"/><path class="cls-1" d="M121.4,61.43h0a1,1,0,0,1-1,.71c-1.12,0-1.57-.94-1.57-2.58,0-2.13.75-2.46,1.48-2.46a1.12,1.12,0,0,1,1.09.69h0V55.66h1V62h-.9Zm-.87-3.56c-.56,0-.75.44-.75,1.73,0,1.09.14,1.77.81,1.77s.81-.67.81-1.7S121.26,57.87,120.53,57.87Z" transform="translate(0)"/><path class="cls-1" d="M125.79,55.66h1v2.13h0a1.12,1.12,0,0,1,1.09-.69c.73,0,1.48.33,1.48,2.46,0,1.64-.45,2.58-1.57,2.58a1,1,0,0,1-1-.71h0V62h-.91Zm1.72,5.71c.67,0,.81-.68.81-1.77,0-1.29-.19-1.73-.75-1.73-.74,0-.87.66-.87,1.8S126.85,61.37,127.51,61.37Z" transform="translate(0)"/><path class="cls-1" d="M130.82,57.23l.83,3.59h0l.76-3.59h1l-1.32,5c-.37,1.31-.68,1.48-1.67,1.46a2.33,2.33,0,0,1-.38,0v-.76a1.55,1.55,0,0,0,.31,0c.33,0,.54-.07.65-.37l.12-.39-1.36-4.89Z" transform="translate(0)"/><path class="cls-1" d="M136.6,55.66H140v.85h-2.42v1.77h2.28v.85h-2.28v2h2.49V62h-3.5Z" transform="translate(0)"/><path class="cls-1" d="M141.25,57.23h.91v.56h0a1.36,1.36,0,0,1,1.22-.69c.73,0,1.2.33,1.2,1.3V62h-1V58.73c0-.62-.19-.86-.67-.86s-.77.31-.77.93V62h-1Z" transform="translate(0)"/><path class="cls-1" d="M145.32,57.23H146V55.86h1v1.37h.78v.71h-.78v2.85c0,.38.11.51.43.51a1.62,1.62,0,0,0,.35,0V62a3.31,3.31,0,0,1-.77.08c-.65,0-1-.18-1-1.16v-3h-.66Z" transform="translate(0)"/><path class="cls-1" d="M148.79,57.23h1V58h0a1.18,1.18,0,0,1,1.11-.87.63.63,0,0,1,.23,0v1a1.61,1.61,0,0,0-.4-.06c-.43,0-1,.2-1,1.09V62h-1Z" transform="translate(0)"/><path class="cls-1" d="M155.64,57.23h.91v.58h0a1.16,1.16,0,0,1,1.08-.71c1.1,0,1.54.94,1.54,2.58,0,2-.82,2.46-1.48,2.46a1.11,1.11,0,0,1-1.08-.69h0v2.13h-1Zm1.72,4.14c.56,0,.81-.41.81-1.73,0-1.09-.15-1.77-.81-1.77s-.81.67-.81,1.7S156.69,61.37,157.36,61.37Z" transform="translate(0)"/><path class="cls-1" d="M160.13,57.23h1V58h0a1.19,1.19,0,0,1,1.11-.87.63.63,0,0,1,.23,0v1a1.61,1.61,0,0,0-.4-.06c-.43,0-1,.2-1,1.09V62h-1Z" transform="translate(0)"/><path class="cls-1" d="M167.15,57.23h.91v.56h0a1.37,1.37,0,0,1,1.23-.69c.72,0,1.19.33,1.19,1.3V62h-1V58.73c0-.62-.19-.86-.67-.86s-.77.31-.77.93V62h-1Z" transform="translate(0)"/><path class="cls-1" d="M177.93,61.45h0a1.38,1.38,0,0,1-1.23.69c-.71,0-1.19-.33-1.19-1.57V57.23h1v3.43c0,.53.24.71.65.71a.74.74,0,0,0,.78-.8V57.23h1V62h-.91Z" transform="translate(0)"/><path class="cls-1" d="M180,57.23h1V58h0a1.18,1.18,0,0,1,1.11-.87.63.63,0,0,1,.23,0v1a1.61,1.61,0,0,0-.4-.06c-.43,0-1,.2-1,1.09V62h-1Z" transform="translate(0)"/><path class="cls-1" d="M182.66,61.83a2.84,2.84,0,0,0,1.13.22,1.37,1.37,0,0,0,1.54-1.38c0-.54-.24-.8-.77-1.19l-.5-.37c-.28-.2-.49-.35-.49-.64s.11-.5.61-.5a2.15,2.15,0,0,1,.87.2l0-.83a3,3,0,0,0-1-.18,1.39,1.39,0,0,0-1.43,1.33,1.49,1.49,0,0,0,.87,1.32l.43.29c.33.22.46.4.46.63s-.22.51-.68.51a2.25,2.25,0,0,1-1-.28l0,0Z" transform="translate(0)"/></svg>